<svg width="20" height="20" viewBox="0 0 20 20" fill="none" xmlns="http://www.w3.org/2000/svg">
<g clip-path="url(#clip0_1464_435)">
<path d="M14.1417 12.0332C15.2833 12.2248 16.5417 12.0248 17.425 11.4332C18.6 10.6498 18.6 9.3665 17.425 8.58317C16.5333 7.9915 15.2583 7.7915 14.1167 7.9915M5.83335 12.0332C4.69168 12.2248 3.43335 12.0248 2.55001 11.4332C1.37501 10.6498 1.37501 9.3665 2.55001 8.58317C3.44168 7.9915 4.71668 7.7915 5.85835 7.9915M15 5.9665C14.9476 5.95816 14.8941 5.95816 14.8417 5.9665C14.2855 5.94639 13.759 5.71084 13.3734 5.30964C12.9877 4.90843 12.7731 4.373 12.775 3.8165C12.775 2.62484 13.7333 1.6665 14.925 1.6665C15.4952 1.6665 16.0421 1.89302 16.4453 2.29622C16.8485 2.69943 17.075 3.24629 17.075 3.8165C17.0735 4.3734 16.8567 4.90813 16.4699 5.30885C16.0832 5.70956 15.5565 5.94521 15 5.9665ZM4.97501 5.9665C5.02501 5.95817 5.08335 5.95817 5.13335 5.9665C5.68949 5.94639 6.21602 5.71084 6.60167 5.30964C6.98733 4.90843 7.20189 4.373 7.20001 3.8165C7.20001 2.62484 6.24168 1.6665 5.05001 1.6665C4.4798 1.6665 3.93294 1.89302 3.52973 2.29622C3.12653 2.69943 2.90001 3.24629 2.90001 3.8165C2.90835 4.98317 3.82501 5.92484 4.97501 5.9665ZM10 12.1915C9.94756 12.1832 9.89413 12.1832 9.84168 12.1915C9.28554 12.1714 8.75901 11.9358 8.37335 11.5346C7.9877 11.1334 7.77313 10.598 7.77501 10.0415C7.77501 8.84984 8.73335 7.8915 9.92501 7.8915C10.4952 7.8915 11.0421 8.11802 11.4453 8.52122C11.8485 8.92443 12.075 9.47129 12.075 10.0415C12.0667 11.2082 11.15 12.1582 10 12.1915ZM7.57501 14.8165C6.40001 15.5998 6.40001 16.8832 7.57501 17.6665C8.90835 18.5582 11.0917 18.5582 12.425 17.6665C13.6 16.8832 13.6 15.5998 12.425 14.8165C11.1 13.9332 8.90835 13.9332 7.57501 14.8165Z" stroke="#A6D903" stroke-width="1.5" stroke-linecap="round" stroke-linejoin="round"/>
</g>
<defs>
<clipPath id="clip0_1464_435">
<rect width="20" height="20" fill="white"/>
</clipPath>
</defs>
</svg>
