<svg width="24" height="24" viewBox="0 0 24 24" fill="none" xmlns="http://www.w3.org/2000/svg">
<path d="M11.9954 10.8042C11.9074 10.7954 11.8018 10.7954 11.705 10.8042C10.6952 10.7699 9.73844 10.3439 9.03726 9.61643C8.33608 8.88898 7.94557 7.91716 7.94844 6.90679C7.94844 4.75137 9.69037 3.00063 11.8546 3.00063C12.367 2.99139 12.8762 3.08316 13.3531 3.2707C13.83 3.45825 14.2653 3.73789 14.6342 4.09367C15.003 4.44944 15.2982 4.87439 15.5028 5.34423C15.7074 5.81408 15.8175 6.31963 15.8267 6.83201C15.836 7.3444 15.7442 7.85359 15.5567 8.33051C15.3691 8.80743 15.0895 9.24274 14.7337 9.61159C14.3779 9.98043 13.953 10.2756 13.4831 10.4802C13.0133 10.6848 12.5077 10.7949 11.9954 10.8042ZM7.59653 14.0505C5.4675 15.4757 5.4675 17.7983 7.59653 19.2147C10.0159 20.8335 13.9836 20.8335 16.403 19.2147C18.532 17.7895 18.532 15.4669 16.403 14.0505C13.9924 12.4405 10.0247 12.4405 7.59653 14.0505Z" stroke="#A6D903" stroke-width="1.5" stroke-linecap="round" stroke-linejoin="round"/>
<path d="M18.18 19.86C20.2124 19.86 21.86 18.2124 21.86 16.18C21.86 14.1476 20.2124 12.5 18.18 12.5C16.1476 12.5 14.5 14.1476 14.5 16.18C14.5 18.2124 16.1476 19.86 18.18 19.86Z" fill="#FE4C4C" stroke="black" stroke-linecap="round" stroke-linejoin="round"/>
<path d="M16.9079 14.9082L19.4519 17.4522" stroke="black" stroke-linecap="round" stroke-linejoin="round"/>
<path d="M16.9079 17.4522L19.4519 14.9082" stroke="black" stroke-linecap="round" stroke-linejoin="round"/>
</svg>
