<svg width="32" height="32" viewBox="0 0 32 32" fill="none" xmlns="http://www.w3.org/2000/svg">
<path d="M12.2871 17.6162H19.7107V31.4437L15.9989 28.7799L12.2871 31.4437V17.6162Z" fill="#A6D903"/>
<path d="M13.2949 20.6641H18.7051V30.7413L16 28.7999L13.2949 30.7413V20.6641Z" fill="#6F8C10"/>
<path d="M17.6261 2.2614C16.8505 1.10279 15.1469 1.10278 14.3713 2.2614L12.1285 5.61152C11.9299 5.90814 11.6049 6.09578 11.2488 6.11944L7.2261 6.38666C5.83489 6.47908 4.98309 7.95443 5.59866 9.20547L7.37857 12.8228C7.53617 13.1431 7.53617 13.5184 7.37857 13.8386L5.59866 17.456C4.98309 18.707 5.83488 20.1824 7.2261 20.2748L11.2488 20.542C11.6049 20.5657 11.9299 20.7533 12.1285 21.0499L14.3713 24.4001C15.1469 25.5587 16.8505 25.5587 17.6261 24.4001L19.8689 21.0499C20.0675 20.7533 20.3925 20.5657 20.7486 20.542L24.7713 20.2748C26.1625 20.1824 27.0143 18.707 26.3987 17.456L24.6188 13.8386C24.4612 13.5184 24.4612 13.1431 24.6188 12.8228L26.3987 9.20547C27.0143 7.95444 26.1625 6.47908 24.7713 6.38666L20.7486 6.11944C20.3925 6.09578 20.0675 5.90814 19.8689 5.61152L17.6261 2.2614Z" fill="#A6D903" stroke="#3B3C43" stroke-width="0.808014"/>
<circle cx="16.0005" cy="13.3306" r="6.90868" fill="#6F8C10"/>
<path d="M15.3437 9.24779C15.5505 8.61129 16.451 8.61129 16.6578 9.24779L17.4035 11.5428H19.8166C20.4859 11.5428 20.7642 12.3992 20.2227 12.7926L18.2705 14.211L19.0162 16.506C19.223 17.1425 18.4945 17.6718 17.953 17.2785L16.0008 15.8601L14.0485 17.2785C13.507 17.6718 12.7785 17.1425 12.9854 16.506L13.7311 14.211L11.7788 12.7926C11.2373 12.3992 11.5156 11.5428 12.1849 11.5428H14.598L15.3437 9.24779Z" fill="white"/>
</svg>
