<svg width="32" height="32" viewBox="0 0 32 32" fill="none" xmlns="http://www.w3.org/2000/svg">
<path d="M12.2891 17.6162H19.7127V31.4437L16.0009 28.7799L12.2891 31.4437V17.6162Z" fill="#A6D903"/>
<path d="M13.2969 20.6641H18.7071V30.7413L16.002 28.7999L13.2969 30.7413V20.6641Z" fill="#6F8C10"/>
<path d="M17.5816 2.03432C16.7992 0.964304 15.2021 0.964303 14.4197 2.03432L11.3143 6.2814C11.1724 6.47559 10.9731 6.62039 10.7445 6.69542L5.74566 8.33639C4.48625 8.74982 3.99271 10.2688 4.76859 11.3435L7.84819 15.6093C7.989 15.8044 8.06513 16.0386 8.06585 16.2792L8.08179 21.5405C8.0858 22.866 9.37789 23.8048 10.6398 23.399L15.6485 21.7883C15.8775 21.7147 16.1238 21.7147 16.3528 21.7883L21.3615 23.399C22.6234 23.8048 23.9155 22.866 23.9195 21.5405L23.9354 16.2792C23.9362 16.0387 24.0123 15.8044 24.1531 15.6093L27.2327 11.3435C28.0086 10.2688 27.5151 8.74982 26.2556 8.33639L21.2568 6.69542C21.0282 6.62039 20.829 6.47559 20.687 6.2814L17.5816 2.03432Z" fill="#A6D903" stroke="#3B3C43" stroke-width="0.808014"/>
<circle cx="16.0024" cy="13.3306" r="6.90868" fill="#6F8C10"/>
<path d="M15.3417 9.24974C15.5486 8.61324 16.449 8.61324 16.6559 9.24974L17.4016 11.5448H19.8147C20.484 11.5448 20.7622 12.4012 20.2208 12.7946L18.2685 14.213L19.0142 16.508C19.221 17.1445 18.4925 17.6738 17.9511 17.2804L15.9988 15.862L14.0465 17.2804C13.5051 17.6738 12.7766 17.1445 12.9834 16.508L13.7291 14.213L11.7768 12.7946C11.2354 12.4012 11.5137 11.5448 12.1829 11.5448H14.596L15.3417 9.24974Z" fill="white"/>
</svg>
