<svg width="24" height="24" viewBox="0 0 24 24" fill="none" xmlns="http://www.w3.org/2000/svg">
<g clip-path="url(#clip0_245_601)">
<path d="M21.9794 7.51003L21.4894 10.22C21.4653 10.1909 21.4386 10.1641 21.4094 10.14L19.1896 8.37003C17.1085 6.83075 14.5884 6 11.9999 6C9.41142 6 6.89128 6.83075 4.81022 8.37003L2.59035 10.14C2.56122 10.1641 2.53443 10.1909 2.51035 10.22L2.02035 7.51003C1.98007 7.25133 2.01198 6.98654 2.11255 6.74481C2.21312 6.50309 2.37846 6.29381 2.59035 6.14003L4.81022 4.37003C6.89128 2.83075 9.41142 2 11.9999 2C14.5884 2 17.1085 2.83075 19.1896 4.37003L21.4094 6.14003C21.6213 6.29381 21.7867 6.50309 21.8872 6.74482C21.9878 6.98654 22.0197 7.25133 21.9794 7.51003Z" fill="#A6D903" stroke="#242529" stroke-width="1.5" stroke-linecap="round" stroke-linejoin="round"/>
<path d="M21.9795 11.51L20.3496 20.61C20.2244 21.0368 19.9565 21.4077 19.5907 21.6607C19.2248 21.9137 18.7833 22.0335 18.3397 22H5.66025C5.21672 22.0335 4.77515 21.9137 4.40932 21.6607C4.0435 21.4077 3.7756 21.0368 3.65039 20.61L2.02046 11.51C1.98266 11.271 2.00799 11.0262 2.09394 10.7999C2.17989 10.5736 2.32347 10.3737 2.51046 10.22C2.53454 10.1909 2.56133 10.1641 2.59046 10.14L4.81031 8.37003C6.89137 6.83075 9.41151 6 12 6C14.5885 6 17.1086 6.83075 19.1897 8.37003L21.4095 10.14C21.4387 10.1641 21.4655 10.1909 21.4895 10.22C21.6765 10.3737 21.8201 10.5736 21.906 10.7999C21.992 11.0262 22.0173 11.271 21.9795 11.51Z" fill="#A6D903" stroke="#242529" stroke-width="1.5" stroke-linecap="round" stroke-linejoin="round"/>
<path d="M11.9999 14C12.5303 14 13.039 14.2107 13.4141 14.5858C13.7891 14.9608 13.9998 15.4695 13.9998 15.9999V22H10V15.9999C10 15.7373 10.0517 15.4772 10.1522 15.2346C10.2527 14.992 10.4 14.7715 10.5857 14.5858C10.7715 14.4001 10.9919 14.2527 11.2346 14.1522C11.4772 14.0517 11.7373 14 11.9999 14Z" stroke="#242529" stroke-width="1.5" stroke-linecap="round" stroke-linejoin="round"/>
<path d="M4.00024 18H9.99997" stroke="#242529" stroke-width="1.5" stroke-linecap="round" stroke-linejoin="round"/>
<path d="M14 18H19.9997" stroke="#242529" stroke-width="1.5" stroke-linecap="round" stroke-linejoin="round"/>
<path d="M12 14L12 2" stroke="#242529" stroke-width="1.5" stroke-linecap="round" stroke-linejoin="round"/>
<path d="M2.00049 11L10.0001 16" stroke="#242529" stroke-width="1.5" stroke-linecap="round" stroke-linejoin="round"/>
<path d="M21.9996 11L14 16" stroke="#242529" stroke-width="1.5" stroke-linecap="round" stroke-linejoin="round"/>
</g>
<defs>
<clipPath id="clip0_245_601">
<rect width="22" height="22" fill="white" transform="translate(1 1)"/>
</clipPath>
</defs>
</svg>
