<?xml version="1.0" encoding="utf-8"?><!-- Uploaded to: SVG Repo, www.svgrepo.com, Generator: SVG Repo Mixer Tools -->
<svg fill="#000000" width="800px" height="800px" viewBox="0 0 24 24" id="bathroom-2" data-name="Flat Line" xmlns="http://www.w3.org/2000/svg" class="icon flat-line"><path id="secondary" d="M19,10H13V9a3,3,0,0,1,3-3h0a3,3,0,0,1,3,3Z" style="fill: rgb(44, 169, 188); stroke-width: 2;"></path><path id="primary" d="M16,6V5a2,2,0,0,0-2-2H9A2,2,0,0,0,7,5V21" style="fill: none; stroke: rgb(0, 0, 0); stroke-linecap: round; stroke-linejoin: round; stroke-width: 2;"></path><path id="primary-2" data-name="primary" d="M19,10H13V9a3,3,0,0,1,3-3h0a3,3,0,0,1,3,3ZM5,21H9m9-5V14m-4,2V14" style="fill: none; stroke: rgb(0, 0, 0); stroke-linecap: round; stroke-linejoin: round; stroke-width: 2;"></path></svg>