<svg width="32" height="32" viewBox="0 0 32 32" fill="none" xmlns="http://www.w3.org/2000/svg">
<g clip-path="url(#clip0_1674_896)">
<rect width="7.45379" height="11.734" rx="1" transform="matrix(-0.866025 -0.5 -0.5 0.866025 27.8516 3.91406)" fill="#A6D903"/>
<rect width="5.32135" height="11.734" transform="matrix(-0.866025 -0.5 -0.5 0.866025 26.9277 3.38184)" fill="#6F8C10"/>
<rect width="7.45379" height="11.734" rx="1" transform="matrix(-0.866025 0.5 0.5 0.866025 10.1328 0.1875)" fill="#A6D903"/>
<rect width="5.32135" height="11.734" transform="matrix(-0.866025 0.5 0.5 0.866025 9.20898 0.719727)" fill="#6F8C10"/>
<path d="M6.80424 26.6531L6.95898 26.1776L6.80424 26.6531L10.7684 27.9433C10.9577 28.0049 11.132 28.1055 11.28 28.2386L14.3794 31.0266C15.301 31.8556 16.6997 31.8556 17.6213 31.0266L20.7207 28.2386C20.8687 28.1055 21.043 28.0049 21.2322 27.9433L25.1964 26.6531C26.3752 26.2695 27.0745 25.0582 26.8174 23.8455L25.9526 19.7674C25.9113 19.5726 25.9113 19.3714 25.9526 19.1767L26.8174 15.0985C27.0745 13.8858 26.3752 12.6746 25.1964 12.2909L21.2322 11.0008C21.043 10.9392 20.8687 10.8385 20.7207 10.7054L17.6213 7.91741L17.2941 8.28117L17.6213 7.91741C16.6997 7.08838 15.301 7.08838 14.3794 7.91741L11.28 10.7054C11.132 10.8385 10.9577 10.9392 10.7684 11.0008L6.80424 12.2909C5.62545 12.6746 4.92613 13.8858 5.18328 15.0985L6.04805 19.1767C6.08934 19.3714 6.08934 19.5726 6.04805 19.7674L5.18328 23.8455C4.92613 25.0582 5.62545 26.2695 6.80424 26.6531Z" fill="#A6D903" stroke="#3B3C43"/>
<circle cx="15.9994" cy="19.4721" r="8.5502" fill="#6F8C10"/>
<path d="M15.1873 16.0017C15.4432 15.214 16.5577 15.214 16.8136 16.0017L17.3441 17.6344H19.0608C19.8891 17.6344 20.2334 18.6943 19.5634 19.1811L18.1745 20.1902L18.705 21.8229C18.961 22.6106 18.0594 23.2656 17.3893 22.7788L16.0004 21.7697L14.6116 22.7788C13.9415 23.2656 13.0399 22.6106 13.2959 21.8229L13.8263 20.1902L12.4375 19.1811C11.7674 18.6943 12.1118 17.6344 12.9401 17.6344H14.6568L15.1873 16.0017Z" fill="white"/>
</g>
<defs>
<clipPath id="clip0_1674_896">
<rect width="32" height="32" fill="white"/>
</clipPath>
</defs>
</svg>
