<svg width="20" height="20" viewBox="0 0 20 20" fill="none" xmlns="http://www.w3.org/2000/svg">
<path d="M13.4917 1.66675H6.50832C3.47499 1.66675 1.66666 3.47508 1.66666 6.50841V13.4917C1.66666 16.5251 3.47499 18.3334 6.50832 18.3334H13.4917C16.525 18.3334 18.3333 16.5251 18.3333 13.4917V6.50841C18.3333 3.47508 16.525 1.66675 13.4917 1.66675ZM8.30832 12.4167L6.43332 14.2917C6.30832 14.4167 6.14999 14.4751 5.99166 14.4751C5.83332 14.4751 5.66666 14.4167 5.54999 14.2917L4.92499 13.6667C4.67499 13.4251 4.67499 13.0251 4.92499 12.7834C5.16666 12.5417 5.55832 12.5417 5.80832 12.7834L5.99166 12.9667L7.42499 11.5334C7.66666 11.2917 8.05832 11.2917 8.30832 11.5334C8.54999 11.7751 8.54999 12.1751 8.30832 12.4167ZM8.30832 6.58341L6.43332 8.45841C6.30832 8.58341 6.14999 8.64175 5.99166 8.64175C5.83332 8.64175 5.66666 8.58341 5.54999 8.45841L4.92499 7.83341C4.67499 7.59175 4.67499 7.19175 4.92499 6.95008C5.16666 6.70841 5.55832 6.70841 5.80832 6.95008L5.99166 7.13341L7.42499 5.70008C7.66666 5.45841 8.05832 5.45841 8.30832 5.70008C8.54999 5.94175 8.54999 6.34175 8.30832 6.58341ZM14.6333 13.8501H10.2583C9.91666 13.8501 9.63332 13.5667 9.63332 13.2251C9.63332 12.8834 9.91666 12.6001 10.2583 12.6001H14.6333C14.7991 12.6001 14.9581 12.6659 15.0753 12.7831C15.1925 12.9003 15.2583 13.0593 15.2583 13.2251C15.2583 13.3908 15.1925 13.5498 15.0753 13.667C14.9581 13.7842 14.7991 13.8501 14.6333 13.8501ZM14.6333 8.01675H10.2583C9.91666 8.01675 9.63332 7.73341 9.63332 7.39175C9.63332 7.05008 9.91666 6.76675 10.2583 6.76675H14.6333C14.7991 6.76675 14.9581 6.8326 15.0753 6.94981C15.1925 7.06702 15.2583 7.22599 15.2583 7.39175C15.2583 7.55751 15.1925 7.71648 15.0753 7.83369C14.9581 7.9509 14.7991 8.01675 14.6333 8.01675Z" fill="#A6D903"/>
</svg>
