<svg width="24" height="24" viewBox="0 0 24 24" fill="none" xmlns="http://www.w3.org/2000/svg">
<path d="M3.26315 19.533L1.60603 10.1262C1.57563 9.95359 1.62427 9.77369 1.73745 9.63992C8.04215 2.18835 15.2305 1.98198 22.2436 9.63604C22.3677 9.77142 22.4229 9.95977 22.391 10.1406L20.7364 19.533C20.6861 19.8185 20.4381 20.0267 20.1482 20.0267H3.85143C3.56151 20.0267 3.31345 19.8185 3.26315 19.533Z" stroke="#A6D903" stroke-width="1.5"/>
<path d="M3.26354 19.5332L1.85627 11.5397C1.82337 11.3529 1.88286 11.1591 2.01535 11.0233C8.29345 4.58737 15.1176 4.40876 22.0993 11.0169C22.2457 11.1554 22.3121 11.3618 22.2742 11.5597L20.7428 19.5421C20.6888 19.8235 20.4427 20.0269 20.1562 20.0269H3.85183C3.56189 20.0269 3.31381 19.8187 3.26354 19.5332Z" stroke="#A6D903"/>
<rect x="9.74902" y="14.283" width="4.50162" height="5.74384" rx="0.597338" stroke="#A6D903"/>
<path d="M3.06299 17.1548H9.74934V20.0266H3.90637C3.601 20.0266 3.3448 19.7963 3.3124 19.4926L3.06299 17.1548Z" stroke="#A6D903"/>
<path d="M20.937 17.1548H14.2507V20.0266H20.0936C20.399 20.0266 20.6552 19.7963 20.6876 19.4926L20.937 17.1548Z" stroke="#A6D903"/>
<path d="M11.8005 6.37903V14.41" stroke="#A6D903"/>
<path d="M16.8806 7.58173L14.0663 14.4098" stroke="#A6D903"/>
<path d="M20.5775 9.82986L14.1663 17.1547" stroke="#A6D903"/>
<path d="M6.93481 7.58173L9.74913 14.4098" stroke="#A6D903"/>
<path d="M3.23792 9.82986L9.64909 17.1547" stroke="#A6D903"/>
</svg>
