<svg width="24" height="24" viewBox="0 0 24 24" fill="none" xmlns="http://www.w3.org/2000/svg">
<path d="M11.9956 10.8042C11.9076 10.7954 11.8021 10.7954 11.7053 10.8042C10.6955 10.7699 9.73869 10.3439 9.0375 9.61643C8.33632 8.88898 7.94581 7.91716 7.94868 6.90679C7.94868 4.75137 9.69062 3.00063 11.8548 3.00063C12.3672 2.99139 12.8764 3.08316 13.3533 3.2707C13.8303 3.45825 14.2656 3.73789 14.6344 4.09367C15.0033 4.44944 15.2984 4.87439 15.503 5.34423C15.7077 5.81408 15.8177 6.31963 15.827 6.83201C15.8362 7.3444 15.7445 7.85359 15.5569 8.33051C15.3694 8.80743 15.0897 9.24274 14.7339 9.61159C14.3782 9.98043 13.9532 10.2756 13.4834 10.4802C13.0135 10.6848 12.508 10.7949 11.9956 10.8042ZM7.59677 14.0505C5.46774 15.4757 5.46774 17.7983 7.59677 19.2147C10.0161 20.8335 13.9839 20.8335 16.4032 19.2147C18.5323 17.7895 18.5323 15.4669 16.4032 14.0505C13.9927 12.4405 10.0249 12.4405 7.59677 14.0505Z" stroke="white" stroke-width="1.5" stroke-linecap="round" stroke-linejoin="round"/>
</svg>
