<svg width="24" height="24" viewBox="0 0 24 24" fill="none" xmlns="http://www.w3.org/2000/svg">
<path d="M5.98683 17.6035C5.05293 18.0204 4.5 18.5376 4.5 19.0979C4.5 20.4786 7.85786 21.5979 12 21.5979C16.1421 21.5979 19.5 20.4786 19.5 19.0979C19.5 18.5376 18.9471 18.0204 18.0132 17.6035" stroke="#A6D903" stroke-width="1.5" stroke-linecap="round"/>
<path d="M12 11.2785C12.3326 11.2785 12.6619 11.213 12.9692 11.0857C13.2765 10.9584 13.5558 10.7719 13.7909 10.5367C14.0261 10.3015 14.2127 10.0223 14.34 9.71497C14.4673 9.40768 14.5328 9.07832 14.5328 8.74571C14.5328 8.41309 14.4673 8.08373 14.34 7.77644C14.2127 7.46914 14.0261 7.18993 13.7909 6.95473C13.5558 6.71954 13.2765 6.53298 12.9692 6.40569C12.6619 6.2784 12.3326 6.21289 12 6.21289C11.3282 6.21289 10.684 6.47974 10.209 6.95473C9.73401 7.42973 9.46716 8.07396 9.46716 8.74571C9.46716 9.41745 9.73401 10.0617 10.209 10.5367C10.684 11.0117 11.3282 11.2785 12 11.2785Z" stroke="#A6D903" stroke-width="1.2177"/>
<path d="M5.19707 7.26858C6.79631 0.238397 17.2117 0.246515 18.8028 7.2767C19.7364 11.4006 17.1711 14.8914 14.9224 17.0508C14.1367 17.8086 13.0876 18.2321 11.9959 18.2321C10.9042 18.2321 9.85512 17.8086 9.06935 17.0508C6.82879 14.8914 4.2635 11.3925 5.19707 7.26858Z" stroke="#A6D903" stroke-width="1.2177"/>
</svg>
