<svg width="24" height="24" viewBox="0 0 24 24" fill="none" xmlns="http://www.w3.org/2000/svg">
<g clip-path="url(#clip0_246_659)">
<path d="M6 7C7.10457 7 8 6.10457 8 5C8 3.89543 7.10457 3 6 3C4.89543 3 4 3.89543 4 5C4 6.10457 4.89543 7 6 7Z" stroke="#7D7D7D" stroke-width="1.5" stroke-linecap="round" stroke-linejoin="round"/>
<path d="M18 7C19.1046 7 20 6.10457 20 5C20 3.89543 19.1046 3 18 3C16.8954 3 16 3.89543 16 5C16 6.10457 16.8954 7 18 7Z" stroke="#7D7D7D" stroke-width="1.5" stroke-linecap="round" stroke-linejoin="round"/>
<path d="M12 8C13.6569 8 15 6.65685 15 5C15 3.34315 13.6569 2 12 2C10.3431 2 9 3.34315 9 5C9 6.65685 10.3431 8 12 8Z" stroke="#7D7D7D" stroke-width="1.5" stroke-linecap="round" stroke-linejoin="round"/>
<path d="M22 14.8901V17.0001C22 17.5305 21.7893 18.0392 21.4142 18.4143C21.0391 18.7894 20.5304 19.0001 20 19.0001H18V18.0001C18.0024 17.212 17.848 16.4312 17.5458 15.7033C17.2437 14.9754 16.7998 14.3149 16.24 13.7601C15.7974 13.3094 15.2839 12.9344 14.72 12.65C15.0746 12.1383 15.5486 11.7206 16.101 11.4331C16.6533 11.1456 17.2673 10.997 17.89 11H18.11C18.6208 11 19.1267 11.1007 19.5986 11.2962C20.0706 11.4917 20.4994 11.7782 20.8606 12.1394C21.2219 12.5006 21.5084 12.9295 21.7039 13.4014C21.8994 13.8734 22 14.3792 22 14.8901Z" stroke="#7D7D7D" stroke-width="1.5" stroke-linecap="round" stroke-linejoin="round"/>
<path d="M9.28 12.65C8.29257 13.152 7.46342 13.9175 6.88447 14.8618C6.30552 15.8062 5.99938 16.8924 6 18V19H4C3.46957 19 2.96086 18.7893 2.58578 18.4143C2.21071 18.0392 2 17.5305 2 17V14.89C2 13.8584 2.40984 12.8689 3.13936 12.1394C3.86888 11.4099 4.85831 11 5.89 11H6.11C6.73266 10.997 7.34669 11.1456 7.89902 11.4331C8.45134 11.7206 8.92533 12.1383 9.28 12.65Z" stroke="#7D7D7D" stroke-width="1.5" stroke-linecap="round" stroke-linejoin="round"/>
<path d="M18 18.0001V19.8701C18.0001 20.1327 17.9484 20.3928 17.8479 20.6355C17.7474 20.8782 17.6001 21.0987 17.4144 21.2844C17.2286 21.4702 17.0081 21.6175 16.7655 21.718C16.5228 21.8184 16.2627 21.8701 16 21.8701H8C7.73734 21.8701 7.47723 21.8184 7.23455 21.718C6.99187 21.6175 6.77136 21.4702 6.58563 21.2844C6.3999 21.0987 6.25259 20.8782 6.1521 20.6355C6.05162 20.3928 5.99993 20.1327 6 19.8701V18.0001C5.99938 16.8924 6.30552 15.8062 6.88447 14.8619C7.46342 13.9175 8.29257 13.152 9.28 12.6501C10.1215 12.2186 11.0544 11.9957 12 12.0001C12.9457 11.9957 13.8785 12.2186 14.72 12.6501C15.284 12.9345 15.7974 13.3095 16.24 13.7601C16.7998 14.3149 17.2437 14.9754 17.5458 15.7033C17.848 16.4312 18.0024 17.2119 18 18.0001Z" stroke="#7D7D7D" stroke-width="1.5" stroke-linecap="round" stroke-linejoin="round"/>
</g>
<defs>
<clipPath id="clip0_246_659">
<rect width="22" height="21.87" fill="white" transform="translate(1 1)"/>
</clipPath>
</defs>
</svg>
