<svg width="32" height="32" viewBox="0 0 32 32" fill="none" xmlns="http://www.w3.org/2000/svg">
<rect width="7.45379" height="11.734" rx="1" transform="matrix(-0.866025 -0.5 -0.5 0.866025 27.8594 3.91504)" fill="#A6D903"/>
<rect width="5.32135" height="11.734" transform="matrix(-0.866025 -0.5 -0.5 0.866025 26.9355 3.38281)" fill="#6F8C10"/>
<rect width="7.45379" height="11.734" rx="1" transform="matrix(-0.866025 0.5 0.5 0.866025 10.1367 0.1875)" fill="#A6D903"/>
<rect width="5.32135" height="11.734" transform="matrix(-0.866025 0.5 0.5 0.866025 9.21289 0.719727)" fill="#6F8C10"/>
<path d="M17.9016 8.73111C16.9311 7.50386 15.0695 7.50385 14.0991 8.73111L13.8108 9.09569C13.4361 9.56952 12.8032 9.75535 12.2319 9.5593L11.7923 9.40846C10.3124 8.90067 8.74627 9.90715 8.59341 11.4642L8.548 11.9268C8.48898 12.528 8.05703 13.0265 7.47037 13.1704L7.01898 13.2812C5.4995 13.6541 4.72615 15.3475 5.43937 16.7401L5.65125 17.1538C5.92662 17.6914 5.83275 18.3443 5.41706 18.7826L5.09721 19.1198C4.02056 20.255 4.2855 22.0977 5.63836 22.8836L6.04026 23.1171C6.56259 23.4205 6.8366 24.0205 6.72386 24.6139L6.63711 25.0706C6.34511 26.6076 7.56422 28.0146 9.12721 27.9443L9.59152 27.9234C10.195 27.8963 10.7499 28.2529 10.9759 28.8131L11.1498 29.2441C11.7351 30.695 13.5213 31.2195 14.7982 30.3154L15.1775 30.0468C15.6705 29.6977 16.3301 29.6977 16.8231 30.0468L17.2024 30.3154C18.4793 31.2195 20.2655 30.695 20.8509 29.2441L21.0248 28.8131C21.2508 28.2529 21.8057 27.8963 22.4091 27.9234L22.8735 27.9443C24.4364 28.0146 25.6555 26.6076 25.3635 25.0706L25.2768 24.6139C25.1641 24.0205 25.4381 23.4205 25.9604 23.1171L26.3623 22.8836C27.7152 22.0977 27.9801 20.255 26.9034 19.1198L26.5836 18.7826C26.1679 18.3443 26.074 17.6914 26.3494 17.1538L26.5613 16.7401C27.2745 15.3475 26.5012 13.6541 24.9817 13.2812L24.5303 13.1704C23.9436 13.0265 23.5117 12.528 23.4527 11.9268L23.4072 11.4642C23.2544 9.90715 21.6883 8.90067 20.2084 9.40846L19.7688 9.5593C19.1974 9.75535 18.5645 9.56952 18.1898 9.09569L17.9016 8.73111Z" fill="#A6D903" stroke="#3B3C43"/>
<circle cx="16.0014" cy="19.473" r="8.5502" fill="#6F8C10"/>
<path d="M11.9834 18.4295C12.1478 17.9236 12.8635 17.9236 13.0279 18.4295L13.5946 20.1738H15.4287C15.9606 20.1738 16.1818 20.8545 15.7515 21.1672L14.2677 22.2452L14.8344 23.9896C14.9988 24.4955 14.4198 24.9161 13.9894 24.6035L12.5056 23.5254L11.0218 24.6035C10.5915 24.9161 10.0125 24.4955 10.1768 23.9896L10.7436 22.2452L9.2598 21.1672C8.82946 20.8545 9.05063 20.1738 9.58256 20.1738H11.4166L11.9834 18.4295Z" fill="white"/>
<path d="M15.4385 13.1073C15.6029 12.6014 16.3186 12.6014 16.4829 13.1073L17.0497 14.8516H18.8838C19.4157 14.8516 19.6369 15.5323 19.2065 15.8449L17.7227 16.923L18.2895 18.6673C18.4539 19.1732 17.8749 19.5939 17.4445 19.2812L15.9607 18.2032L14.4769 19.2812C14.0466 19.5939 13.4675 19.1732 13.6319 18.6673L14.1987 16.923L12.7149 15.8449C12.2845 15.5323 12.5057 14.8516 13.0376 14.8516H14.8717L15.4385 13.1073Z" fill="white"/>
<path d="M18.9678 18.4295C19.1322 17.9236 19.8479 17.9236 20.0122 18.4295L20.579 20.1738H22.4131C22.945 20.1738 23.1662 20.8545 22.7358 21.1672L21.252 22.2452L21.8188 23.9896C21.9832 24.4955 21.4042 24.9161 20.9738 24.6035L19.49 23.5254L18.0062 24.6035C17.5759 24.9161 16.9968 24.4955 17.1612 23.9896L17.728 22.2452L16.2442 21.1672C15.8138 20.8545 16.035 20.1738 16.5669 20.1738H18.401L18.9678 18.4295Z" fill="white"/>
</svg>
