<svg width="30" height="31" viewBox="0 0 30 31" fill="none" xmlns="http://www.w3.org/2000/svg">
<g filter="url(#filter0_d_573_576)">
<path d="M17 9.3V12.2H19.6C19.8 12.2 19.9 12.4 19.9 12.6L19.5 14.5C19.5 14.6 19.3 14.7 19.2 14.7H17V22H14V14.8H12.3C12.1 14.8 12 14.7 12 14.5V12.6C12 12.4 12.1 12.3 12.3 12.3H14V9C14 7.3 15.3 6 17 6H19.7C19.9 6 20 6.1 20 6.3V8.7C20 8.9 19.9 9 19.7 9H17.3C17.1 9 17 9.1 17 9.3Z" stroke="#A6D903" stroke-width="1.5" stroke-miterlimit="10" stroke-linecap="round"/>
<path d="M18 22H12C7 22 5 20 5 15V9C5 4 7 2 12 2H18C23 2 25 4 25 9V15C25 20 23 22 18 22Z" stroke="#A6D903" stroke-width="1.5" stroke-linecap="round" stroke-linejoin="round"/>
</g>
<defs>
<filter id="filter0_d_573_576" x="-1" y="0" width="32" height="32" filterUnits="userSpaceOnUse" color-interpolation-filters="sRGB">
<feFlood flood-opacity="0" result="BackgroundImageFix"/>
<feColorMatrix in="SourceAlpha" type="matrix" values="0 0 0 0 0 0 0 0 0 0 0 0 0 0 0 0 0 0 127 0" result="hardAlpha"/>
<feOffset dy="4"/>
<feGaussianBlur stdDeviation="2"/>
<feComposite in2="hardAlpha" operator="out"/>
<feColorMatrix type="matrix" values="0 0 0 0 0 0 0 0 0 0 0 0 0 0 0 0 0 0 0.25 0"/>
<feBlend mode="normal" in2="BackgroundImageFix" result="effect1_dropShadow_573_576"/>
<feBlend mode="normal" in="SourceGraphic" in2="effect1_dropShadow_573_576" result="shape"/>
</filter>
</defs>
</svg>
