<svg width="20" height="20" viewBox="0 0 20 20" fill="none" xmlns="http://www.w3.org/2000/svg">
<path d="M9.99615 9.00346C9.92284 8.99613 9.83486 8.99613 9.75422 9.00346C8.91272 8.97489 8.11539 8.61991 7.53107 8.0137C6.94675 7.40748 6.62133 6.59764 6.62372 5.75566C6.62372 3.95947 8.07533 2.50053 9.87885 2.50053C10.3058 2.49283 10.7302 2.5693 11.1276 2.72559C11.525 2.88187 11.8878 3.11491 12.1952 3.41139C12.5025 3.70787 12.7485 4.06199 12.919 4.45353C13.0895 4.84506 13.1813 5.26636 13.189 5.69334C13.1967 6.12033 13.1202 6.54466 12.9639 6.94209C12.8076 7.33952 12.5746 7.70228 12.2781 8.00966C11.9816 8.31703 11.6275 8.563 11.236 8.73351C10.8444 8.90403 10.4231 8.99576 9.99615 9.00346ZM6.33046 11.7087C4.55627 12.8964 4.55627 14.8319 6.33046 16.0123C8.34659 17.3612 11.653 17.3612 13.6692 16.0123C15.4434 14.8246 15.4434 12.8891 13.6692 11.7087C11.6604 10.3671 8.35392 10.3671 6.33046 11.7087Z" stroke="#A6D903" stroke-width="1.5" stroke-linecap="round" stroke-linejoin="round"/>
</svg>
