<svg width="20" height="20" viewBox="0 0 20 20" fill="none" xmlns="http://www.w3.org/2000/svg">
<path d="M10 1.66675C7.81666 1.66675 6.04166 3.44175 6.04166 5.62508C6.04166 7.76675 7.71666 9.50008 9.9 9.57508C9.96666 9.56675 10.0333 9.56675 10.0833 9.57508H10.1417C11.1661 9.5409 12.1371 9.10965 12.8494 8.3725C13.5617 7.63536 13.9593 6.65011 13.9583 5.62508C13.9583 3.44175 12.1833 1.66675 10 1.66675ZM14.2333 11.7909C11.9083 10.2409 8.11666 10.2409 5.775 11.7909C4.71666 12.4992 4.13333 13.4576 4.13333 14.4826C4.13333 15.5076 4.71666 16.4576 5.76666 17.1576C6.93333 17.9409 8.46666 18.3326 10 18.3326C11.5333 18.3326 13.0667 17.9409 14.2333 17.1576C15.2833 16.4492 15.8667 15.4992 15.8667 14.4659C15.8583 13.4409 15.2833 12.4909 14.2333 11.7909ZM11.6167 15.2159C11.8583 15.4576 11.8583 15.8576 11.6167 16.0992C11.4917 16.2242 11.3333 16.2826 11.175 16.2826C11.0167 16.2826 10.8583 16.2242 10.7333 16.0992L10 15.3659L9.26666 16.0992C9.14166 16.2242 8.98333 16.2826 8.825 16.2826C8.66666 16.2826 8.50833 16.2242 8.38333 16.0992C8.2673 15.9815 8.20225 15.8229 8.20225 15.6576C8.20225 15.4923 8.2673 15.3336 8.38333 15.2159L9.11666 14.4826L8.38333 13.7492C8.2673 13.6315 8.20225 13.4729 8.20225 13.3076C8.20225 13.1423 8.2673 12.9836 8.38333 12.8659C8.625 12.6242 9.025 12.6242 9.26666 12.8659L10 13.5992L10.7333 12.8659C10.975 12.6242 11.375 12.6242 11.6167 12.8659C11.8583 13.1076 11.8583 13.5076 11.6167 13.7492L10.8833 14.4826L11.6167 15.2159Z" fill="#A6D903"/>
</svg>
