<svg width="20" height="20" viewBox="0 0 20 20" fill="none" xmlns="http://www.w3.org/2000/svg">
<path d="M10 1.66675C7.81666 1.66675 6.04166 3.44175 6.04166 5.62508C6.04166 7.76675 7.71666 9.50008 9.9 9.57508C9.96666 9.56675 10.0333 9.56675 10.0833 9.57508H10.1417C11.1661 9.5409 12.1371 9.10965 12.8494 8.3725C13.5617 7.63536 13.9593 6.65011 13.9583 5.62508C13.9583 3.44175 12.1833 1.66675 10 1.66675ZM14.2333 11.7909C11.9083 10.2409 8.11666 10.2409 5.775 11.7909C4.71666 12.4992 4.13333 13.4576 4.13333 14.4826C4.13333 15.5076 4.71666 16.4576 5.76666 17.1576C6.93333 17.9409 8.46666 18.3326 10 18.3326C11.5333 18.3326 13.0667 17.9409 14.2333 17.1576C15.2833 16.4492 15.8667 15.4992 15.8667 14.4659C15.8583 13.4409 15.2833 12.4909 14.2333 11.7909ZM11.6667 15.1076H10.625V16.1492C10.625 16.4909 10.3417 16.7742 10 16.7742C9.65833 16.7742 9.375 16.4909 9.375 16.1492V15.1076H8.33333C7.99166 15.1076 7.70833 14.8242 7.70833 14.4826C7.70833 14.1409 7.99166 13.8576 8.33333 13.8576H9.375V12.8159C9.375 12.4742 9.65833 12.1909 10 12.1909C10.3417 12.1909 10.625 12.4742 10.625 12.8159V13.8576H11.6667C12.0083 13.8576 12.2917 14.1409 12.2917 14.4826C12.2917 14.8242 12.0083 15.1076 11.6667 15.1076Z" fill="#A6D903"/>
</svg>
