<svg width="20" height="20" viewBox="0 0 20 20" fill="none" xmlns="http://www.w3.org/2000/svg">
<g clip-path="url(#clip0_245_611)">
<path d="M10 10.0001C12.5104 10.0001 14.5455 7.96502 14.5455 5.45463C14.5455 2.94425 12.5104 0.90918 10 0.90918C7.48966 0.90918 5.45459 2.94425 5.45459 5.45463C5.45459 7.96502 7.48966 10.0001 10 10.0001Z" fill="#A6D903" stroke="#242529" stroke-width="1.5" stroke-linecap="round" stroke-linejoin="round"/>
<path d="M8.18191 10H11.8183C13.7471 10 15.597 10.7662 16.9609 12.1301C18.3248 13.494 19.091 15.3439 19.091 17.2727C19.091 17.7549 18.8994 18.2174 18.5585 18.5584C18.2175 18.8994 17.755 19.0909 17.2728 19.0909H2.72736C2.24515 19.0909 1.78269 18.8994 1.44171 18.5584C1.10074 18.2174 0.90918 17.7549 0.90918 17.2727C0.90918 15.3439 1.67541 13.494 3.03931 12.1301C4.40321 10.7662 6.25306 10 8.18191 10Z" fill="#A6D903" stroke="#242529" stroke-width="1.5" stroke-linecap="round" stroke-linejoin="round"/>
</g>
<defs>
<clipPath id="clip0_245_611">
<rect width="20" height="20" fill="white"/>
</clipPath>
</defs>
</svg>
