<svg width="20" height="20" viewBox="0 0 20 20" fill="none" xmlns="http://www.w3.org/2000/svg">
<path d="M2.69791 17.768L2.70021 17.7662L4.12484 16.6998L2.69791 17.768ZM2.69791 17.768C2.4801 17.933 2.1665 17.782 2.1665 17.4998V4.99984C2.1665 4.14425 2.36128 3.44738 2.7741 2.96934C3.17507 2.50501 3.8522 2.1665 4.99984 2.1665H5.83317H13.1758M2.69791 17.768L13.1758 2.1665M13.1758 2.1665C12.9591 2.50369 12.8332 2.90428 12.8332 3.33317V17.4998C12.8332 17.7683 12.5216 17.9302 12.2987 17.7656C12.2984 17.7654 12.2981 17.7652 12.2979 17.765L10.8767 16.7013C10.3494 16.298 9.60323 16.356 9.13795 16.8213L7.73795 18.2213C7.60829 18.3509 7.39172 18.351 7.26195 18.2215C7.26188 18.2214 7.2618 18.2214 7.26172 18.2213L5.87945 16.8307L5.87839 16.8296C5.40467 16.3559 4.65996 16.2988 4.12521 16.6996L13.1758 2.1665ZM5.62484 11.9582H9.37484C9.99265 11.9582 10.4998 11.451 10.4998 10.8332C10.4998 10.2154 9.99265 9.70817 9.37484 9.70817H5.62484C5.00703 9.70817 4.49984 10.2154 4.49984 10.8332C4.49984 11.451 5.00703 11.9582 5.62484 11.9582ZM4.99984 8.62484H9.99984C10.6176 8.62484 11.1248 8.11765 11.1248 7.49984C11.1248 6.88203 10.6176 6.37484 9.99984 6.37484H4.99984C4.38203 6.37484 3.87484 6.88203 3.87484 7.49984C3.87484 8.11765 4.38203 8.62484 4.99984 8.62484Z" stroke="#A6D903"/>
<path d="M15.0085 2.9165C15.5585 2.9165 16.0835 3.1415 16.4668 3.5165C16.8668 3.92484 17.0835 4.44984 17.0835 4.99984V7.0165C17.0835 7.63317 16.8085 7.9165 16.1835 7.9165H14.5835V3.3415C14.5835 3.10817 14.7752 2.9165 15.0085 2.9165ZM15.0085 1.6665C14.0835 1.6665 13.3335 2.4165 13.3335 3.3415V9.1665H16.1835C17.5002 9.1665 18.3335 8.33317 18.3335 7.0165V4.99984C18.3335 4.08317 17.9585 3.24984 17.3585 2.6415C16.7326 2.02193 15.8891 1.67197 15.0085 1.6665Z" fill="#A6D903"/>
</svg>
