<svg width="20" height="20" viewBox="0 0 20 20" fill="none" xmlns="http://www.w3.org/2000/svg">
<path d="M15.625 6.66699V8.41699C15.2583 8.36699 14.8417 8.34199 14.375 8.33366V6.66699C14.375 4.04199 13.6333 2.29199 10 2.29199C6.36667 2.29199 5.625 4.04199 5.625 6.66699V8.33366C5.15833 8.34199 4.74167 8.36699 4.375 8.41699V6.66699C4.375 4.25033 4.95833 1.04199 10 1.04199C15.0417 1.04199 15.625 4.25033 15.625 6.66699Z" fill="#A6D903"/>
<path d="M15.6251 8.41634C15.2584 8.36634 14.8417 8.34134 14.3751 8.33301H5.62508C5.15841 8.34134 4.74175 8.36634 4.37508 8.41634C2.25008 8.67467 1.66675 9.71634 1.66675 12.4997V14.1663C1.66675 17.4997 2.50008 18.333 5.83341 18.333H14.1667C17.5001 18.333 18.3334 17.4997 18.3334 14.1663V12.4997C18.3334 9.71634 17.7501 8.67467 15.6251 8.41634ZM7.25841 13.9247C7.10008 14.0747 6.88341 14.1663 6.66675 14.1663C6.55841 14.1663 6.45008 14.1413 6.35008 14.0997C6.24175 14.058 6.15841 13.9997 6.07508 13.9247C5.92508 13.7663 5.83341 13.5497 5.83341 13.333C5.83341 13.2247 5.85841 13.1163 5.90008 13.0163C5.94175 12.9163 6.00008 12.8247 6.07508 12.7413C6.15841 12.6663 6.24175 12.608 6.35008 12.5663C6.65841 12.433 7.02508 12.508 7.25841 12.7413C7.33341 12.8247 7.39175 12.9163 7.43341 13.0163C7.47508 13.1163 7.50008 13.2247 7.50008 13.333C7.50008 13.5497 7.40841 13.7663 7.25841 13.9247ZM10.7667 13.6497C10.7251 13.7497 10.6667 13.8413 10.5917 13.9247C10.4334 14.0747 10.2167 14.1663 10.0001 14.1663C9.77508 14.1663 9.56675 14.0747 9.40841 13.9247C9.33341 13.8413 9.27508 13.7497 9.23341 13.6497C9.19061 13.5495 9.16796 13.4419 9.16675 13.333C9.16675 13.108 9.25841 12.8997 9.40841 12.7413C9.71675 12.433 10.2751 12.433 10.5917 12.7413C10.7417 12.8997 10.8334 13.108 10.8334 13.333C10.8334 13.4413 10.8084 13.5497 10.7667 13.6497ZM13.9251 13.9247C13.7667 14.0747 13.5501 14.1663 13.3334 14.1663C13.1167 14.1663 12.9001 14.0747 12.7417 13.9247C12.5917 13.7663 12.5001 13.558 12.5001 13.333C12.5001 13.108 12.5917 12.8997 12.7417 12.7413C13.0584 12.433 13.6167 12.433 13.9251 12.7413C13.9584 12.783 13.9917 12.8247 14.0251 12.8747C14.0584 12.9163 14.0834 12.9663 14.1001 13.0163C14.1251 13.0663 14.1417 13.1163 14.1501 13.1663C14.1584 13.2247 14.1667 13.283 14.1667 13.333C14.1667 13.5497 14.0751 13.7663 13.9251 13.9247Z" fill="#A6D903"/>
</svg>
