<svg width="24" height="24" viewBox="0 0 24 24" fill="none" xmlns="http://www.w3.org/2000/svg">
<path d="M11.5993 5.63111L11.9995 6.16735L12.4004 5.63158C13.3204 4.40178 14.7949 3.60205 16.44 3.60205C19.2315 3.60205 21.5 5.87585 21.5 8.69205C21.5 9.82767 21.3189 10.8758 21.0043 11.8481L21.0032 11.8514C20.249 14.2381 18.7035 16.1617 17.0354 17.5954C15.365 19.0309 13.6004 19.9503 12.4589 20.3387L12.4589 20.3387L12.4536 20.3406C12.3537 20.3758 12.1893 20.4021 12 20.4021C11.8107 20.4021 11.6463 20.3758 11.5464 20.3406L11.5464 20.3405L11.5411 20.3387C10.3996 19.9503 8.635 19.0309 6.96465 17.5954C5.29649 16.1617 3.75096 14.2381 2.99676 11.8514L2.99677 11.8514L2.99572 11.8481C2.68114 10.8758 2.5 9.82767 2.5 8.69205C2.5 5.87596 4.7683 3.60223 7.55968 3.60205C8.34433 3.60309 9.11794 3.78698 9.81912 4.13916C10.5204 4.49137 11.1299 5.00221 11.5993 5.63111Z" stroke="white"/>
</svg>
