<svg width="335" height="169" viewBox="0 0 335 169" fill="none" xmlns="http://www.w3.org/2000/svg">
<g clip-path="url(#clip0_1688_522)">
<rect width="335" height="169" rx="16" fill="url(#paint0_linear_1688_522)"/>
<path d="M147.264 27.88V35.896C147.264 36.888 146.96 37.672 146.352 38.248C145.755 38.824 144.965 39.112 143.984 39.112C143.003 39.112 142.208 38.824 141.6 38.248C141.003 37.672 140.704 36.888 140.704 35.896H142.544C142.555 36.3867 142.677 36.776 142.912 37.064C143.157 37.352 143.515 37.496 143.984 37.496C144.453 37.496 144.811 37.352 145.056 37.064C145.301 36.7653 145.424 36.376 145.424 35.896V27.88H147.264ZM158.215 30.184V39H156.391V37.96C156.103 38.3227 155.725 38.6107 155.255 38.824C154.797 39.0267 154.306 39.128 153.783 39.128C153.09 39.128 152.466 38.984 151.911 38.696C151.367 38.408 150.935 37.9813 150.615 37.416C150.306 36.8507 150.151 36.168 150.151 35.368V30.184H151.959V35.096C151.959 35.8853 152.157 36.4933 152.551 36.92C152.946 37.336 153.485 37.544 154.167 37.544C154.85 37.544 155.389 37.336 155.783 36.92C156.189 36.4933 156.391 35.8853 156.391 35.096V30.184H158.215ZM160.014 34.552C160.014 33.6667 160.195 32.8827 160.558 32.2C160.931 31.5173 161.433 30.9893 162.062 30.616C162.702 30.232 163.411 30.04 164.19 30.04C164.766 30.04 165.331 30.168 165.886 30.424C166.451 30.6693 166.899 31 167.23 31.416V27.16H169.07V39H167.23V37.672C166.931 38.0987 166.515 38.4507 165.982 38.728C165.459 39.0053 164.857 39.144 164.174 39.144C163.406 39.144 162.702 38.952 162.062 38.568C161.433 38.1733 160.931 37.6293 160.558 36.936C160.195 36.232 160.014 35.4373 160.014 34.552ZM167.23 34.584C167.23 33.976 167.102 33.448 166.846 33C166.601 32.552 166.275 32.2107 165.87 31.976C165.465 31.7413 165.027 31.624 164.558 31.624C164.089 31.624 163.651 31.7413 163.246 31.976C162.841 32.2 162.51 32.536 162.254 32.984C162.009 33.4213 161.886 33.944 161.886 34.552C161.886 35.16 162.009 35.6933 162.254 36.152C162.51 36.6107 162.841 36.9627 163.246 37.208C163.662 37.4427 164.099 37.56 164.558 37.56C165.027 37.56 165.465 37.4427 165.87 37.208C166.275 36.9733 166.601 36.632 166.846 36.184C167.102 35.7253 167.23 35.192 167.23 34.584ZM179.45 30.184V39H177.626V37.96C177.338 38.3227 176.959 38.6107 176.49 38.824C176.031 39.0267 175.54 39.128 175.018 39.128C174.324 39.128 173.7 38.984 173.146 38.696C172.602 38.408 172.17 37.9813 171.85 37.416C171.54 36.8507 171.386 36.168 171.386 35.368V30.184H173.194V35.096C173.194 35.8853 173.391 36.4933 173.786 36.92C174.18 37.336 174.719 37.544 175.402 37.544C176.084 37.544 176.623 37.336 177.018 36.92C177.423 36.4933 177.626 35.8853 177.626 35.096V30.184H179.45ZM183.68 27.16V39H181.856V27.16H183.68ZM191.159 29.016C190.829 29.016 190.551 28.904 190.327 28.68C190.103 28.456 189.991 28.1787 189.991 27.848C189.991 27.5173 190.103 27.24 190.327 27.016C190.551 26.792 190.829 26.68 191.159 26.68C191.479 26.68 191.751 26.792 191.975 27.016C192.199 27.24 192.311 27.5173 192.311 27.848C192.311 28.1787 192.199 28.456 191.975 28.68C191.751 28.904 191.479 29.016 191.159 29.016ZM192.055 30.184V39H190.231V30.184H192.055ZM197.938 34.6L202.002 39H199.538L196.274 35.208V39H194.45V27.16H196.274V34.04L199.474 30.184H202.002L197.938 34.6ZM205.133 27.16V39H203.309V27.16H205.133ZM206.92 34.552C206.92 33.6667 207.101 32.8827 207.464 32.2C207.837 31.5173 208.339 30.9893 208.968 30.616C209.608 30.232 210.312 30.04 211.08 30.04C211.773 30.04 212.376 30.1787 212.888 30.456C213.411 30.7227 213.827 31.0587 214.136 31.464V30.184H215.976V39H214.136V37.688C213.827 38.104 213.405 38.4507 212.872 38.728C212.339 39.0053 211.731 39.144 211.048 39.144C210.291 39.144 209.597 38.952 208.968 38.568C208.339 38.1733 207.837 37.6293 207.464 36.936C207.101 36.232 206.92 35.4373 206.92 34.552ZM214.136 34.584C214.136 33.976 214.008 33.448 213.752 33C213.507 32.552 213.181 32.2107 212.776 31.976C212.371 31.7413 211.933 31.624 211.464 31.624C210.995 31.624 210.557 31.7413 210.152 31.976C209.747 32.2 209.416 32.536 209.16 32.984C208.915 33.4213 208.792 33.944 208.792 34.552C208.792 35.16 208.915 35.6933 209.16 36.152C209.416 36.6107 209.747 36.9627 210.152 37.208C210.568 37.4427 211.005 37.56 211.464 37.56C211.933 37.56 212.371 37.4427 212.776 37.208C213.181 36.9733 213.507 36.632 213.752 36.184C214.008 35.7253 214.136 35.192 214.136 34.584ZM222.82 30.04C223.513 30.04 224.132 30.184 224.676 30.472C225.231 30.76 225.663 31.1867 225.972 31.752C226.281 32.3173 226.436 33 226.436 33.8V39H224.628V34.072C224.628 33.2827 224.431 32.68 224.036 32.264C223.641 31.8373 223.103 31.624 222.42 31.624C221.737 31.624 221.193 31.8373 220.788 32.264C220.393 32.68 220.196 33.2827 220.196 34.072V39H218.372V30.184H220.196V31.192C220.495 30.8293 220.873 30.5467 221.332 30.344C221.801 30.1413 222.297 30.04 222.82 30.04Z" fill="white"/>
<path d="M141.05 57.2H144.872C146.202 57.2 147.308 57.676 148.19 58.628C149.072 59.566 149.52 60.728 149.52 62.1C149.52 63.472 149.072 64.634 148.19 65.586C147.308 66.524 146.202 67 144.872 67H141.05V57.2ZM142.352 65.768H144.872C145.866 65.768 146.692 65.418 147.322 64.718C147.952 64.018 148.274 63.15 148.274 62.1C148.274 61.05 147.952 60.182 147.322 59.482C146.692 58.782 145.866 58.432 144.872 58.432H142.352V65.768ZM157.693 64.06H151.827C152.065 65.306 153.031 66.034 154.361 66.034C155.285 66.034 155.957 65.698 156.377 65.012L157.413 65.6C156.727 66.65 155.705 67.182 154.333 67.182C153.227 67.182 152.317 66.832 151.617 66.146C150.931 65.446 150.581 64.564 150.581 63.5C150.581 62.45 150.917 61.568 151.603 60.868C152.289 60.168 153.171 59.818 154.249 59.818C155.271 59.818 156.111 60.182 156.755 60.91C157.413 61.624 157.735 62.492 157.735 63.514C157.735 63.696 157.721 63.878 157.693 64.06ZM154.249 60.966C152.947 60.966 152.037 61.764 151.827 62.996H156.503C156.293 61.666 155.369 60.966 154.249 60.966ZM159.912 61.89C159.912 62.436 160.528 62.73 161.298 62.94C162.39 63.178 163.846 63.584 163.832 65.082C163.832 65.712 163.58 66.23 163.09 66.608C162.6 66.986 161.984 67.182 161.214 67.182C159.856 67.182 158.834 66.538 158.428 65.544L159.478 64.942C159.702 65.614 160.36 66.034 161.214 66.034C162.012 66.034 162.6 65.74 162.6 65.082C162.6 64.536 161.984 64.228 161.214 64.046C160.108 63.752 158.68 63.388 158.68 61.904C158.68 61.302 158.918 60.798 159.38 60.406C159.856 60.014 160.444 59.818 161.158 59.818C162.292 59.818 163.23 60.364 163.678 61.274L162.656 61.848C162.404 61.246 161.9 60.952 161.158 60.952C160.472 60.952 159.912 61.288 159.912 61.89ZM167.669 63.388L171.127 67H169.615L166.423 63.682V67H165.205V57.2H166.423V63.094L169.447 60H171.015L167.669 63.388ZM173.478 60V61.176C173.884 60.308 174.612 59.874 175.662 59.874V61.148C175.06 61.12 174.556 61.274 174.122 61.624C173.688 61.974 173.478 62.52 173.478 63.29V67H172.26V60H173.478ZM177.47 58.726C177.008 58.726 176.644 58.362 176.644 57.914C176.644 57.466 177.008 57.088 177.47 57.088C177.918 57.088 178.282 57.466 178.282 57.914C178.282 58.362 177.918 58.726 177.47 58.726ZM178.072 67H176.854V60H178.072V67ZM183.794 59.818C184.774 59.818 185.614 60.182 186.3 60.896C186.986 61.61 187.336 62.478 187.336 63.5C187.336 64.522 186.986 65.404 186.3 66.118C185.614 66.832 184.774 67.182 183.794 67.182C182.632 67.182 181.75 66.72 181.148 65.796V69.8H179.93V60H181.148V61.204C181.75 60.28 182.632 59.818 183.794 59.818ZM183.64 66.006C184.34 66.006 184.928 65.768 185.404 65.292C185.88 64.802 186.118 64.214 186.118 63.5C186.118 62.786 185.88 62.198 185.404 61.722C184.928 61.232 184.34 60.994 183.64 60.994C182.926 60.994 182.338 61.232 181.862 61.722C181.386 62.198 181.148 62.786 181.148 63.5C181.148 64.214 181.386 64.802 181.862 65.292C182.338 65.768 182.926 66.006 183.64 66.006ZM189.689 61.89C189.689 62.436 190.305 62.73 191.075 62.94C192.167 63.178 193.623 63.584 193.609 65.082C193.609 65.712 193.357 66.23 192.867 66.608C192.377 66.986 191.761 67.182 190.991 67.182C189.633 67.182 188.611 66.538 188.205 65.544L189.255 64.942C189.479 65.614 190.137 66.034 190.991 66.034C191.789 66.034 192.377 65.74 192.377 65.082C192.377 64.536 191.761 64.228 190.991 64.046C189.885 63.752 188.457 63.388 188.457 61.904C188.457 61.302 188.695 60.798 189.157 60.406C189.633 60.014 190.221 59.818 190.935 59.818C192.069 59.818 193.007 60.364 193.455 61.274L192.433 61.848C192.181 61.246 191.677 60.952 190.935 60.952C190.249 60.952 189.689 61.288 189.689 61.89ZM195.599 58.726C195.137 58.726 194.773 58.362 194.773 57.914C194.773 57.466 195.137 57.088 195.599 57.088C196.047 57.088 196.411 57.466 196.411 57.914C196.411 58.362 196.047 58.726 195.599 58.726ZM196.201 67H194.983V60H196.201V67ZM202.175 58.726C201.713 58.726 201.349 58.362 201.349 57.914C201.349 57.466 201.713 57.088 202.175 57.088C202.623 57.088 202.987 57.466 202.987 57.914C202.987 58.362 202.623 58.726 202.175 58.726ZM202.777 67H201.559V60H202.777V67ZM207.099 63.388L210.557 67H209.045L205.853 63.682V67H204.635V57.2H205.853V63.094L208.877 60H210.445L207.099 63.388ZM212.908 67H211.69V56.78H212.908V67ZM220.562 61.204V60H221.78V67H220.562V65.796C219.96 66.72 219.078 67.182 217.916 67.182C216.936 67.182 216.096 66.832 215.41 66.118C214.724 65.404 214.374 64.522 214.374 63.5C214.374 62.478 214.724 61.61 215.41 60.896C216.096 60.182 216.936 59.818 217.916 59.818C219.078 59.818 219.96 60.28 220.562 61.204ZM218.07 66.006C218.784 66.006 219.372 65.768 219.848 65.292C220.324 64.802 220.562 64.214 220.562 63.5C220.562 62.786 220.324 62.198 219.848 61.722C219.372 61.232 218.784 60.994 218.07 60.994C217.37 60.994 216.782 61.232 216.306 61.722C215.83 62.198 215.592 62.786 215.592 63.5C215.592 64.214 215.83 64.802 216.306 65.292C216.782 65.768 217.37 66.006 218.07 66.006ZM227.111 59.818C228.749 59.818 229.827 60.924 229.827 62.702V67H228.609V62.772C228.609 61.638 227.951 60.98 226.873 60.98C225.655 60.98 224.843 61.722 224.843 63.29V67H223.625V60H224.843V61.008C225.333 60.21 226.089 59.818 227.111 59.818ZM235.154 57.2H238.976C240.306 57.2 241.412 57.676 242.294 58.628C243.176 59.566 243.624 60.728 243.624 62.1C243.624 63.472 243.176 64.634 242.294 65.586C241.412 66.524 240.306 67 238.976 67H235.154V57.2ZM236.456 65.768H238.976C239.97 65.768 240.796 65.418 241.426 64.718C242.056 64.018 242.378 63.15 242.378 62.1C242.378 61.05 242.056 60.182 241.426 59.482C240.796 58.782 239.97 58.432 238.976 58.432H236.456V65.768ZM251.796 64.06H245.93C246.168 65.306 247.134 66.034 248.464 66.034C249.388 66.034 250.06 65.698 250.48 65.012L251.516 65.6C250.83 66.65 249.808 67.182 248.436 67.182C247.33 67.182 246.42 66.832 245.72 66.146C245.034 65.446 244.684 64.564 244.684 63.5C244.684 62.45 245.02 61.568 245.706 60.868C246.392 60.168 247.274 59.818 248.352 59.818C249.374 59.818 250.214 60.182 250.858 60.91C251.516 61.624 251.838 62.492 251.838 63.514C251.838 63.696 251.824 63.878 251.796 64.06ZM248.352 60.966C247.05 60.966 246.14 61.764 245.93 62.996H250.606C250.396 61.666 249.472 60.966 248.352 60.966ZM254.015 61.89C254.015 62.436 254.631 62.73 255.401 62.94C256.493 63.178 257.949 63.584 257.935 65.082C257.935 65.712 257.683 66.23 257.193 66.608C256.703 66.986 256.087 67.182 255.317 67.182C253.959 67.182 252.937 66.538 252.531 65.544L253.581 64.942C253.805 65.614 254.463 66.034 255.317 66.034C256.115 66.034 256.703 65.74 256.703 65.082C256.703 64.536 256.087 64.228 255.317 64.046C254.211 63.752 252.783 63.388 252.783 61.904C252.783 61.302 253.021 60.798 253.483 60.406C253.959 60.014 254.547 59.818 255.261 59.818C256.395 59.818 257.333 60.364 257.781 61.274L256.759 61.848C256.507 61.246 256.003 60.952 255.261 60.952C254.575 60.952 254.015 61.288 254.015 61.89ZM261.773 63.388L265.231 67H263.719L260.527 63.682V67H259.309V57.2H260.527V63.094L263.551 60H265.119L261.773 63.388ZM267.581 60V61.176C267.987 60.308 268.715 59.874 269.765 59.874V61.148C269.163 61.12 268.659 61.274 268.225 61.624C267.791 61.974 267.581 62.52 267.581 63.29V67H266.363V60H267.581ZM271.573 58.726C271.111 58.726 270.747 58.362 270.747 57.914C270.747 57.466 271.111 57.088 271.573 57.088C272.021 57.088 272.385 57.466 272.385 57.914C272.385 58.362 272.021 58.726 271.573 58.726ZM272.175 67H270.957V60H272.175V67ZM277.897 59.818C278.877 59.818 279.717 60.182 280.403 60.896C281.089 61.61 281.439 62.478 281.439 63.5C281.439 64.522 281.089 65.404 280.403 66.118C279.717 66.832 278.877 67.182 277.897 67.182C276.735 67.182 275.853 66.72 275.251 65.796V69.8H274.033V60H275.251V61.204C275.853 60.28 276.735 59.818 277.897 59.818ZM277.743 66.006C278.443 66.006 279.031 65.768 279.507 65.292C279.983 64.802 280.221 64.214 280.221 63.5C280.221 62.786 279.983 62.198 279.507 61.722C279.031 61.232 278.443 60.994 277.743 60.994C277.029 60.994 276.441 61.232 275.965 61.722C275.489 62.198 275.251 62.786 275.251 63.5C275.251 64.214 275.489 64.802 275.965 65.292C276.441 65.768 277.029 66.006 277.743 66.006ZM283.792 61.89C283.792 62.436 284.408 62.73 285.178 62.94C286.27 63.178 287.726 63.584 287.712 65.082C287.712 65.712 287.46 66.23 286.97 66.608C286.48 66.986 285.864 67.182 285.094 67.182C283.736 67.182 282.714 66.538 282.308 65.544L283.358 64.942C283.582 65.614 284.24 66.034 285.094 66.034C285.892 66.034 286.48 65.74 286.48 65.082C286.48 64.536 285.864 64.228 285.094 64.046C283.988 63.752 282.56 63.388 282.56 61.904C282.56 61.302 282.798 60.798 283.26 60.406C283.736 60.014 284.324 59.818 285.038 59.818C286.172 59.818 287.11 60.364 287.558 61.274L286.536 61.848C286.284 61.246 285.78 60.952 285.038 60.952C284.352 60.952 283.792 61.288 283.792 61.89ZM289.702 58.726C289.24 58.726 288.876 58.362 288.876 57.914C288.876 57.466 289.24 57.088 289.702 57.088C290.15 57.088 290.514 57.466 290.514 57.914C290.514 58.362 290.15 58.726 289.702 58.726ZM290.304 67H289.086V60H290.304V67ZM141.54 75.726C141.078 75.726 140.714 75.362 140.714 74.914C140.714 74.466 141.078 74.088 141.54 74.088C141.988 74.088 142.352 74.466 142.352 74.914C142.352 75.362 141.988 75.726 141.54 75.726ZM142.142 84H140.924V77H142.142V84ZM146.464 80.388L149.922 84H148.41L145.218 80.682V84H144V74.2H145.218V80.094L148.242 77H149.81L146.464 80.388ZM152.273 84H151.055V73.78H152.273V84ZM159.927 78.204V77H161.145V84H159.927V82.796C159.325 83.72 158.443 84.182 157.281 84.182C156.301 84.182 155.461 83.832 154.775 83.118C154.089 82.404 153.739 81.522 153.739 80.5C153.739 79.478 154.089 78.61 154.775 77.896C155.461 77.182 156.301 76.818 157.281 76.818C158.443 76.818 159.325 77.28 159.927 78.204ZM157.435 83.006C158.149 83.006 158.737 82.768 159.213 82.292C159.689 81.802 159.927 81.214 159.927 80.5C159.927 79.786 159.689 79.198 159.213 78.722C158.737 78.232 158.149 77.994 157.435 77.994C156.735 77.994 156.147 78.232 155.671 78.722C155.195 79.198 154.957 79.786 154.957 80.5C154.957 81.214 155.195 81.802 155.671 82.292C156.147 82.768 156.735 83.006 157.435 83.006ZM166.476 76.818C168.114 76.818 169.192 77.924 169.192 79.702V84H167.974V79.772C167.974 78.638 167.316 77.98 166.238 77.98C165.02 77.98 164.208 78.722 164.208 80.29V84H162.99V77H164.208V78.008C164.698 77.21 165.454 76.818 166.476 76.818ZM174.519 74.2H178.341C179.671 74.2 180.777 74.676 181.659 75.628C182.541 76.566 182.989 77.728 182.989 79.1C182.989 80.472 182.541 81.634 181.659 82.586C180.777 83.524 179.671 84 178.341 84H174.519V74.2ZM175.821 82.768H178.341C179.335 82.768 180.161 82.418 180.791 81.718C181.421 81.018 181.743 80.15 181.743 79.1C181.743 78.05 181.421 77.182 180.791 76.482C180.161 75.782 179.335 75.432 178.341 75.432H175.821V82.768ZM191.162 81.06H185.296C185.534 82.306 186.5 83.034 187.83 83.034C188.754 83.034 189.426 82.698 189.846 82.012L190.882 82.6C190.196 83.65 189.174 84.182 187.802 84.182C186.696 84.182 185.786 83.832 185.086 83.146C184.4 82.446 184.05 81.564 184.05 80.5C184.05 79.45 184.386 78.568 185.072 77.868C185.758 77.168 186.64 76.818 187.718 76.818C188.74 76.818 189.58 77.182 190.224 77.91C190.882 78.624 191.204 79.492 191.204 80.514C191.204 80.696 191.19 80.878 191.162 81.06ZM187.718 77.966C186.416 77.966 185.506 78.764 185.296 79.996H189.972C189.762 78.666 188.838 77.966 187.718 77.966ZM193.38 78.89C193.38 79.436 193.996 79.73 194.766 79.94C195.858 80.178 197.314 80.584 197.3 82.082C197.3 82.712 197.048 83.23 196.558 83.608C196.068 83.986 195.452 84.182 194.682 84.182C193.324 84.182 192.302 83.538 191.896 82.544L192.946 81.942C193.17 82.614 193.828 83.034 194.682 83.034C195.48 83.034 196.068 82.74 196.068 82.082C196.068 81.536 195.452 81.228 194.682 81.046C193.576 80.752 192.148 80.388 192.148 78.904C192.148 78.302 192.386 77.798 192.848 77.406C193.324 77.014 193.912 76.818 194.626 76.818C195.76 76.818 196.698 77.364 197.146 78.274L196.124 78.848C195.872 78.246 195.368 77.952 194.626 77.952C193.94 77.952 193.38 78.288 193.38 78.89ZM201.138 80.388L204.596 84H203.084L199.892 80.682V84H198.674V74.2H199.892V80.094L202.916 77H204.484L201.138 80.388ZM206.947 77V78.176C207.353 77.308 208.081 76.874 209.131 76.874V78.148C208.529 78.12 208.025 78.274 207.591 78.624C207.157 78.974 206.947 79.52 206.947 80.29V84H205.729V77H206.947ZM210.938 75.726C210.476 75.726 210.112 75.362 210.112 74.914C210.112 74.466 210.476 74.088 210.938 74.088C211.386 74.088 211.75 74.466 211.75 74.914C211.75 75.362 211.386 75.726 210.938 75.726ZM211.54 84H210.322V77H211.54V84ZM217.263 76.818C218.243 76.818 219.083 77.182 219.769 77.896C220.455 78.61 220.805 79.478 220.805 80.5C220.805 81.522 220.455 82.404 219.769 83.118C219.083 83.832 218.243 84.182 217.263 84.182C216.101 84.182 215.219 83.72 214.617 82.796V86.8H213.399V77H214.617V78.204C215.219 77.28 216.101 76.818 217.263 76.818ZM217.109 83.006C217.809 83.006 218.397 82.768 218.873 82.292C219.349 81.802 219.587 81.214 219.587 80.5C219.587 79.786 219.349 79.198 218.873 78.722C218.397 78.232 217.809 77.994 217.109 77.994C216.395 77.994 215.807 78.232 215.331 78.722C214.855 79.198 214.617 79.786 214.617 80.5C214.617 81.214 214.855 81.802 215.331 82.292C215.807 82.768 216.395 83.006 217.109 83.006ZM223.158 78.89C223.158 79.436 223.774 79.73 224.544 79.94C225.636 80.178 227.092 80.584 227.078 82.082C227.078 82.712 226.826 83.23 226.336 83.608C225.846 83.986 225.23 84.182 224.46 84.182C223.102 84.182 222.08 83.538 221.674 82.544L222.724 81.942C222.948 82.614 223.606 83.034 224.46 83.034C225.258 83.034 225.846 82.74 225.846 82.082C225.846 81.536 225.23 81.228 224.46 81.046C223.354 80.752 221.926 80.388 221.926 78.904C221.926 78.302 222.164 77.798 222.626 77.406C223.102 77.014 223.69 76.818 224.404 76.818C225.538 76.818 226.476 77.364 226.924 78.274L225.902 78.848C225.65 78.246 225.146 77.952 224.404 77.952C223.718 77.952 223.158 78.288 223.158 78.89ZM229.067 75.726C228.605 75.726 228.241 75.362 228.241 74.914C228.241 74.466 228.605 74.088 229.067 74.088C229.515 74.088 229.879 74.466 229.879 74.914C229.879 75.362 229.515 75.726 229.067 75.726ZM229.669 84H228.451V77H229.669V84ZM235.644 75.726C235.182 75.726 234.818 75.362 234.818 74.914C234.818 74.466 235.182 74.088 235.644 74.088C236.092 74.088 236.456 74.466 236.456 74.914C236.456 75.362 236.092 75.726 235.644 75.726ZM236.246 84H235.028V77H236.246V84ZM240.568 80.388L244.026 84H242.514L239.322 80.682V84H238.104V74.2H239.322V80.094L242.346 77H243.914L240.568 80.388ZM246.376 84H245.158V73.78H246.376V84ZM254.031 78.204V77H255.249V84H254.031V82.796C253.429 83.72 252.547 84.182 251.385 84.182C250.405 84.182 249.565 83.832 248.879 83.118C248.193 82.404 247.843 81.522 247.843 80.5C247.843 79.478 248.193 78.61 248.879 77.896C249.565 77.182 250.405 76.818 251.385 76.818C252.547 76.818 253.429 77.28 254.031 78.204ZM251.539 83.006C252.253 83.006 252.841 82.768 253.317 82.292C253.793 81.802 254.031 81.214 254.031 80.5C254.031 79.786 253.793 79.198 253.317 78.722C252.841 78.232 252.253 77.994 251.539 77.994C250.839 77.994 250.251 78.232 249.775 78.722C249.299 79.198 249.061 79.786 249.061 80.5C249.061 81.214 249.299 81.802 249.775 82.292C250.251 82.768 250.839 83.006 251.539 83.006ZM260.58 76.818C262.218 76.818 263.296 77.924 263.296 79.702V84H262.078V79.772C262.078 78.638 261.42 77.98 260.342 77.98C259.124 77.98 258.312 78.722 258.312 80.29V84H257.094V77H258.312V78.008C258.802 77.21 259.558 76.818 260.58 76.818Z" fill="#90918F"/>
<rect x="140" y="105" width="155.5" height="40" rx="20" fill="white"/>
<path d="M206.821 125.5C207.797 126.012 208.389 126.94 208.389 128.108C208.389 129.02 208.069 129.788 207.413 130.396C206.757 131.004 205.973 131.308 205.029 131.308H200.229V120.108H204.677C205.589 120.108 206.373 120.412 206.997 121.004C207.637 121.596 207.957 122.332 207.957 123.212C207.957 124.188 207.573 124.94 206.821 125.5ZM204.677 121.836H202.069V124.78H204.677C205.493 124.78 206.117 124.14 206.117 123.308C206.117 122.476 205.493 121.836 204.677 121.836ZM202.069 129.58H205.029C205.877 129.58 206.549 128.892 206.549 128.012C206.549 127.132 205.877 126.444 205.029 126.444H202.069V129.58ZM216.297 124.444V123.308H218.025V131.308H216.297V130.156C215.641 131.068 214.713 131.516 213.497 131.516C212.393 131.516 211.465 131.116 210.681 130.3C209.897 129.484 209.513 128.476 209.513 127.308C209.513 126.124 209.897 125.132 210.681 124.316C211.465 123.5 212.393 123.1 213.497 123.1C214.713 123.1 215.641 123.548 216.297 124.444ZM211.961 129.148C212.441 129.628 213.049 129.868 213.769 129.868C214.489 129.868 215.097 129.628 215.577 129.148C216.057 128.652 216.297 128.044 216.297 127.308C216.297 126.572 216.057 125.964 215.577 125.484C215.097 124.988 214.489 124.748 213.769 124.748C213.049 124.748 212.441 124.988 211.961 125.484C211.481 125.964 211.241 126.572 211.241 127.308C211.241 128.044 211.481 128.652 211.961 129.148ZM223.815 131.516C222.615 131.516 221.607 131.116 220.791 130.3C219.991 129.484 219.591 128.492 219.591 127.308C219.591 126.108 219.991 125.116 220.791 124.316C221.607 123.5 222.615 123.1 223.815 123.1C225.367 123.1 226.743 123.9 227.383 125.164L225.895 126.028C225.527 125.26 224.759 124.796 223.799 124.796C223.095 124.796 222.503 125.036 222.023 125.516C221.559 125.996 221.319 126.588 221.319 127.308C221.319 128.028 221.559 128.62 222.023 129.1C222.503 129.58 223.095 129.82 223.799 129.82C224.743 129.82 225.543 129.34 225.927 128.588L227.415 129.436C226.727 130.716 225.367 131.516 223.815 131.516ZM232.088 127.228L235.736 131.308H233.672L230.392 127.612V131.308H228.664V120.108H230.392V126.844L233.496 123.308H235.608L232.088 127.228Z" fill="black"/>
<circle cx="44.8906" cy="83.8906" r="122.891" fill="white" fill-opacity="0.03"/>
<circle cx="44.8909" cy="83.8909" r="80.4768" fill="white" fill-opacity="0.03"/>
<circle cx="44.8902" cy="83.8912" r="46.5918" fill="white" fill-opacity="0.03"/>
<rect width="14.53" height="22.8736" rx="1.75682" transform="matrix(-0.866025 -0.5 -0.5 0.866025 68.0088 60.335)" fill="#A6D903"/>
<rect width="10.3732" height="22.8736" transform="matrix(-0.866025 -0.5 -0.5 0.866025 66.2085 59.2969)" fill="#6F8C10"/>
<rect width="14.53" height="22.8736" rx="1.75682" transform="matrix(-0.866025 0.5 0.5 0.866025 33.4673 53.0679)" fill="#A6D903"/>
<rect width="10.3732" height="22.8736" transform="matrix(-0.866025 0.5 0.5 0.866025 31.665 54.106)" fill="#6F8C10"/>
<path d="M48.2319 69.4153C46.527 67.2593 43.2564 67.2593 41.5516 69.4153L40.5364 70.6992C39.8782 71.5316 38.7663 71.8581 37.7625 71.5137L36.2144 70.9825C33.6146 70.0904 30.8632 71.8586 30.5946 74.5941L30.4347 76.223C30.331 77.2791 29.5722 78.1549 28.5415 78.4078L26.952 78.7979C24.2825 79.4531 22.9239 82.4281 24.1769 84.8745L24.923 86.3313C25.4068 87.2758 25.2419 88.4229 24.5116 89.1929L23.3853 90.3804C21.4938 92.3747 21.9592 95.612 24.336 96.9927L25.7512 97.8148C26.6689 98.3479 27.1502 99.4019 26.9522 100.445L26.6467 102.052C26.1337 104.753 28.2755 107.225 31.0213 107.101L32.6564 107.028C33.7166 106.98 34.6914 107.606 35.0885 108.591L35.7008 110.108C36.7292 112.657 39.8673 113.579 42.1105 111.99L43.4462 111.045C44.3123 110.431 45.4711 110.431 46.3372 111.045L47.673 111.99C49.9162 113.579 53.0543 112.657 54.0826 110.108L54.695 108.591C55.092 107.606 56.0669 106.98 57.127 107.028L58.7621 107.101C61.508 107.225 63.6497 104.753 63.1367 102.052L62.8313 100.445C62.6332 99.4019 63.1146 98.3479 64.0322 97.8148L65.4475 96.9927C67.8242 95.612 68.2897 92.3747 66.3982 90.3804L65.2719 89.1929C64.5416 88.4229 64.3767 87.2758 64.8605 86.3313L65.6066 84.8745C66.8596 82.4281 65.5009 79.4531 62.8315 78.7979L61.2419 78.4078C60.2113 78.1549 59.4524 77.2791 59.3487 76.223L59.1888 74.5941C58.9203 71.8586 56.1689 70.0904 53.569 70.9825L52.0209 71.5137C51.0171 71.8581 49.9053 71.5316 49.247 70.6992L48.2319 69.4153Z" fill="#A6D903" stroke="#3B3C43" stroke-width="1.75682"/>
<circle cx="44.8934" cy="90.6629" r="16.6673" fill="#6F8C10"/>
<path d="M37.1629 88.3193C37.4517 87.4305 38.709 87.4305 38.9978 88.3193L40.2032 92.029H44.1038C45.0383 92.029 45.4269 93.2248 44.6708 93.7741L41.5152 96.0669L42.7205 99.7766C43.0093 100.665 41.9921 101.404 41.236 100.855L38.0803 98.5624L34.9247 100.855C34.1686 101.404 33.1514 100.665 33.4402 99.7766L34.6455 96.0669L31.4899 93.7741C30.7338 93.2248 31.1224 92.029 32.0569 92.029H35.9575L37.1629 88.3193Z" fill="white"/>
<path d="M43.8987 77.9448C44.1875 77.056 45.4449 77.056 45.7337 77.9448L46.939 81.6545H50.8397C51.7742 81.6545 52.1627 82.8503 51.4067 83.3996L48.251 85.6924L49.4564 89.4021C49.7451 90.2909 48.7279 91.0299 47.9719 90.4806L44.8162 88.1879L41.6605 90.4806C40.9045 91.0299 39.8872 90.2909 40.176 89.4021L41.3814 85.6924L38.2257 83.3996C37.4697 82.8503 37.8582 81.6545 38.7927 81.6545H42.6934L43.8987 77.9448Z" fill="white"/>
<path d="M50.7776 88.3203C51.0664 87.4315 52.3238 87.4315 52.6126 88.3203L53.8179 92.03H57.7186C58.6531 92.03 59.0416 93.2258 58.2856 93.7751L55.1299 96.0679L56.3353 99.7776C56.6241 100.666 55.6068 101.405 54.8508 100.856L51.6951 98.5634L48.5394 100.856C47.7834 101.405 46.7661 100.666 47.0549 99.7776L48.2603 96.0679L45.1046 93.7751C44.3486 93.2258 44.7371 92.03 45.6716 92.03H49.5723L50.7776 88.3203Z" fill="white"/>
<rect width="5.74026" height="9.03647" rx="0.770113" transform="matrix(-0.866025 -0.5 -0.5 0.866025 54.4043 11.8208)" fill="#A6D903"/>
<rect width="4.09804" height="9.03647" transform="matrix(-0.866025 -0.5 -0.5 0.866025 53.6934 11.4111)" fill="#6F8C10"/>
<rect width="5.74026" height="9.03647" rx="0.770113" transform="matrix(-0.866025 0.5 0.5 0.866025 40.7568 8.94971)" fill="#A6D903"/>
<rect width="4.09804" height="9.03647" transform="matrix(-0.866025 0.5 0.5 0.866025 40.0474 9.35938)" fill="#6F8C10"/>
<path d="M36.6094 23.6752L36.914 23.4397L36.6094 23.6752L37.3827 24.6752C37.6033 24.9605 37.6696 25.3361 37.5598 25.6796L37.1751 26.8838C36.8402 27.9323 37.4806 29.0415 38.5561 29.2757L39.7912 29.5446C40.1437 29.6213 40.4358 29.8665 40.5726 30.2002L41.0519 31.3699C41.4693 32.3884 42.6728 32.8265 43.6473 32.3145L44.7663 31.7266C45.0856 31.5589 45.467 31.5589 45.7863 31.7266L46.9053 32.3145C47.8797 32.8265 49.0833 32.3884 49.5007 31.3699L49.98 30.2002C50.1167 29.8665 50.4089 29.6213 50.7613 29.5446L51.9965 29.2757C53.072 29.0415 53.7124 27.9323 53.3774 26.8838L52.9927 25.6796C52.883 25.3361 52.9492 24.9605 53.1699 24.6752L53.9432 23.6752C54.6166 22.8045 54.3941 21.5432 53.4636 20.9553L52.3949 20.2801C52.09 20.0875 51.8993 19.7572 51.8849 19.3968L51.8346 18.1337C51.7907 17.0339 50.8096 16.2106 49.7188 16.3584L48.4662 16.5281C48.1087 16.5766 47.7504 16.4461 47.5077 16.1793L46.6572 15.2441C45.9167 14.4297 44.6359 14.4297 43.8953 15.2441L43.0448 16.1793C42.8022 16.4461 42.4438 16.5766 42.0864 16.5281L40.8338 16.3584C39.743 16.2106 38.7619 17.0339 38.718 18.1337L38.6676 19.3968C38.6533 19.7572 38.4626 20.0875 38.1577 20.2801L37.089 20.9553C36.1584 21.5432 35.936 22.8045 36.6094 23.6752Z" fill="#A6D903" stroke="#3B3C43" stroke-width="0.770113"/>
<circle cx="45.278" cy="23.8009" r="6.58462" fill="#6F8C10"/>
<path d="M47.0995 22.1375C47.2557 21.6568 47.9357 21.6568 48.0919 22.1375L48.5673 23.6006H50.1057C50.6111 23.6006 50.8213 24.2473 50.4124 24.5444L49.1678 25.4487L49.6432 26.9118C49.7993 27.3925 49.2492 27.7922 48.8403 27.4951L47.5957 26.5908L46.3511 27.4951C45.9422 27.7922 45.3921 27.3925 45.5482 26.9118L46.0236 25.4487L44.779 24.5444C44.3701 24.2473 44.5803 23.6006 45.0857 23.6006H46.6241L47.0995 22.1375Z" fill="white"/>
<path d="M42.0292 20.4114C42.1854 19.9307 42.8654 19.9307 43.0216 20.4114L43.497 21.8745H45.0354C45.5408 21.8745 45.7509 22.5213 45.3421 22.8183L44.0975 23.7226L44.5728 25.1857C44.729 25.6664 44.1789 26.0661 43.77 25.769L42.5254 24.8648L41.2808 25.769C40.8719 26.0661 40.3217 25.6664 40.4779 25.1857L40.9533 23.7226L39.7087 22.8183C39.2998 22.5213 39.51 21.8745 40.0154 21.8745H41.5538L42.0292 20.4114Z" fill="white"/>
<g clip-path="url(#clip1_1688_522)">
<rect width="5.74026" height="9.03647" rx="0.770113" transform="matrix(-0.866025 -0.5 -0.5 0.866025 111.391 43.394)" fill="#A6D903"/>
<rect width="4.09804" height="9.03647" transform="matrix(-0.866025 -0.5 -0.5 0.866025 110.68 42.9844)" fill="#6F8C10"/>
<rect width="5.74026" height="9.03647" rx="0.770113" transform="matrix(-0.866025 0.5 0.5 0.866025 97.7427 40.5239)" fill="#A6D903"/>
<rect width="4.09804" height="9.03647" transform="matrix(-0.866025 0.5 0.5 0.866025 97.0312 40.9336)" fill="#6F8C10"/>
<path d="M103.511 46.4771C102.801 45.8386 101.724 45.8386 101.014 46.4771L98.6274 48.6241C98.5134 48.7266 98.3792 48.8041 98.2334 48.8516L95.1806 49.8451C94.2728 50.1406 93.7342 51.0734 93.9323 52.0073L94.5982 55.1479C94.63 55.2979 94.63 55.4529 94.5982 55.6029L93.9323 58.7435C93.7342 59.6774 94.2728 60.6102 95.1806 60.9057L98.2334 61.8992C98.3792 61.9467 98.5134 62.0241 98.6274 62.1267L101.014 64.2737C101.724 64.9122 102.801 64.9122 103.511 64.2737L105.898 62.1267C106.012 62.0241 106.146 61.9467 106.292 61.8992L109.345 60.9057C110.252 60.6102 110.791 59.6774 110.593 58.7435L109.927 55.6029C109.895 55.4529 109.895 55.2979 109.927 55.1479L110.593 52.0073C110.791 51.0734 110.252 50.1406 109.345 49.8451L106.292 48.8516C106.146 48.8041 106.012 48.7266 105.898 48.6241L103.511 46.4771Z" fill="#A6D903" stroke="#3B3C43" stroke-width="0.770113"/>
<circle cx="102.262" cy="55.3751" r="6.58462" fill="#6F8C10"/>
<path d="M101.636 52.7027C101.833 52.0961 102.691 52.0961 102.888 52.7027L103.297 53.9601H104.619C105.256 53.9601 105.522 54.7763 105.006 55.1513L103.936 55.9283L104.345 57.1857C104.542 57.7923 103.847 58.2968 103.331 57.9219L102.262 57.1448L101.192 57.9219C100.676 58.2968 99.9818 57.7923 100.179 57.1857L100.587 55.9283L99.5179 55.1513C99.0019 54.7763 99.2671 53.9601 99.905 53.9601H101.227L101.636 52.7027Z" fill="white"/>
</g>
<g clip-path="url(#clip2_1688_522)">
<path d="M42.4155 147.899H48.1326V158.548L45.274 156.496L42.4155 158.548V147.899Z" fill="#A6D903"/>
<path d="M43.1924 150.246H47.3588V158.006L45.2756 156.511L43.1924 158.006V150.246Z" fill="#6F8C10"/>
<path d="M44.0207 136.075L44.2792 136.248L44.0207 136.075L42.2935 138.655C42.1406 138.883 41.8903 139.027 41.616 139.046L38.5181 139.251C37.4467 139.323 36.7908 140.459 37.2648 141.422L38.6355 144.208C38.7569 144.455 38.7569 144.744 38.6355 144.99L37.2648 147.776C36.7908 148.74 37.4467 149.876 38.5181 149.947L41.616 150.153C41.8903 150.171 42.1406 150.315 42.2935 150.544L44.0207 153.124C44.618 154.016 45.93 154.016 46.5273 153.124L48.2545 150.544C48.4074 150.315 48.6577 150.171 48.932 150.153L52.0299 149.947C53.1013 149.876 53.7573 148.74 53.2832 147.776L51.9125 144.99C51.7911 144.744 51.7911 144.455 51.9125 144.208L53.2832 141.422C53.7573 140.459 53.1013 139.323 52.0299 139.251L48.932 139.046C48.6577 139.027 48.4074 138.883 48.2545 138.655L46.5273 136.075C45.93 135.182 44.618 135.182 44.0207 136.075Z" fill="#A6D903" stroke="#3B3C43" stroke-width="0.622262"/>
<circle cx="45.2751" cy="144.599" r="5.32046" fill="#6F8C10"/>
<path d="M44.7693 141.455C44.9286 140.965 45.6221 140.965 45.7814 141.455L46.3556 143.223H48.214C48.7294 143.223 48.9437 143.882 48.5267 144.185L47.0233 145.278L47.5976 147.045C47.7568 147.535 47.1958 147.943 46.7788 147.64L45.2754 146.547L43.7719 147.64C43.3549 147.943 42.7939 147.535 42.9532 147.045L43.5274 145.278L42.024 144.185C41.607 143.882 41.8213 143.223 42.3367 143.223H44.1951L44.7693 141.455Z" fill="white"/>
</g>
<circle cx="102.14" cy="115.726" r="9.74974" fill="#A6D903" stroke="#3B3C43" stroke-width="0.769088"/>
<circle cx="102.14" cy="115.726" r="7.05529" fill="#6F8C10"/>
<path d="M101.516 111.84C101.713 111.234 102.57 111.234 102.767 111.84L103.476 114.024H105.773C106.41 114.024 106.675 114.839 106.16 115.214L104.302 116.564L105.011 118.748C105.208 119.354 104.515 119.858 103.999 119.484L102.141 118.134L100.283 119.484C99.7677 119.858 99.0743 119.354 99.2711 118.748L99.9809 116.564L98.1227 115.214C97.6073 114.839 97.8722 114.024 98.5092 114.024H100.806L101.516 111.84Z" fill="white"/>
</g>
<rect x="0.5" y="0.5" width="334" height="168" rx="15.5" stroke="url(#paint1_linear_1688_522)"/>
<defs>
<linearGradient id="paint0_linear_1688_522" x1="97" y1="42.0001" x2="997.45" y2="186.871" gradientUnits="userSpaceOnUse">
<stop stop-color="#242529"/>
<stop offset="1" stop-color="#A6D903"/>
</linearGradient>
<linearGradient id="paint1_linear_1688_522" x1="-40.5" y1="-47" x2="363.5" y2="200" gradientUnits="userSpaceOnUse">
<stop stop-color="#A6D903" stop-opacity="0.46"/>
<stop offset="0.378417" stop-color="#D2EC80" stop-opacity="0"/>
<stop offset="0.690039" stop-color="#E6F4B7" stop-opacity="0"/>
<stop offset="1" stop-color="white"/>
</linearGradient>
<clipPath id="clip0_1688_522">
<rect width="335" height="169" rx="16" fill="white"/>
</clipPath>
<clipPath id="clip1_1688_522">
<rect width="24.6436" height="24.6436" fill="white" transform="translate(89.9429 40.3789)"/>
</clipPath>
<clipPath id="clip2_1688_522">
<rect width="24.6436" height="24.6436" fill="white" transform="translate(32.9546 134.333)"/>
</clipPath>
</defs>
</svg>
