<svg width="20" height="20" viewBox="0 0 20 20" fill="none" xmlns="http://www.w3.org/2000/svg">
<path d="M5.83317 1.6665H4.99984C2.49984 1.6665 1.6665 3.15817 1.6665 4.99984V17.4998C1.6665 18.1915 2.44984 18.5832 2.99984 18.1665L4.42484 17.0998C4.75817 16.8498 5.22484 16.8832 5.52484 17.1832L6.90817 18.5748C7.23317 18.8998 7.7665 18.8998 8.0915 18.5748L9.4915 17.1748C9.78317 16.8832 10.2498 16.8498 10.5748 17.0998L11.9998 18.1665C12.5498 18.5748 13.3332 18.1832 13.3332 17.4998V3.33317C13.3332 2.4165 14.0832 1.6665 14.9998 1.6665H5.83317ZM9.37484 11.4582H5.62484C5.28317 11.4582 4.99984 11.1748 4.99984 10.8332C4.99984 10.4915 5.28317 10.2082 5.62484 10.2082H9.37484C9.7165 10.2082 9.99984 10.4915 9.99984 10.8332C9.99984 11.1748 9.7165 11.4582 9.37484 11.4582ZM9.99984 8.12484H4.99984C4.65817 8.12484 4.37484 7.8415 4.37484 7.49984C4.37484 7.15817 4.65817 6.87484 4.99984 6.87484H9.99984C10.3415 6.87484 10.6248 7.15817 10.6248 7.49984C10.6248 7.8415 10.3415 8.12484 9.99984 8.12484Z" fill="#A6D903"/>
<path d="M15.0085 2.9165C15.5585 2.9165 16.0835 3.1415 16.4668 3.5165C16.8668 3.92484 17.0835 4.44984 17.0835 4.99984V7.0165C17.0835 7.63317 16.8085 7.9165 16.1835 7.9165H14.5835V3.3415C14.5835 3.10817 14.7752 2.9165 15.0085 2.9165ZM15.0085 1.6665C14.0835 1.6665 13.3335 2.4165 13.3335 3.3415V9.1665H16.1835C17.5002 9.1665 18.3335 8.33317 18.3335 7.0165V4.99984C18.3335 4.08317 17.9585 3.24984 17.3585 2.6415C16.7326 2.02193 15.8891 1.67197 15.0085 1.6665Z" fill="#A6D903"/>
</svg>
