<svg width="20" height="20" viewBox="0 0 20 20" fill="none" xmlns="http://www.w3.org/2000/svg">
<path d="M7.86667 2C5.68333 2 3.90833 3.775 3.90833 5.95833C3.90833 8.1 5.58333 9.83333 7.76667 9.90833C7.83333 9.9 7.9 9.9 7.95 9.90833H8.00833C9.0328 9.87415 10.0038 9.4429 10.7161 8.70576C11.4283 7.96861 11.826 6.98337 11.825 5.95833C11.825 3.775 10.05 2 7.86667 2ZM12.1 12.1242C9.775 10.5742 5.98333 10.5742 3.64167 12.1242C2.58333 12.8325 2 13.7908 2 14.8158C2 15.8408 2.58333 16.7908 3.63333 17.4908C4.8 18.2742 6.33333 18.6658 7.86667 18.6658C9.4 18.6658 10.9333 18.2742 12.1 17.4908C13.15 16.7825 13.7333 15.8325 13.7333 14.7992C13.725 13.7742 13.15 12.8242 12.1 12.1242ZM17.025 6.44833C17.1583 8.065 16.0083 9.48167 14.4167 9.67333H14.375C14.325 9.67333 14.275 9.67333 14.2333 9.69C13.425 9.73167 12.6833 9.47333 12.125 8.99833C12.9833 8.23167 13.475 7.08167 13.375 5.83167C13.3178 5.18167 13.0971 4.55671 12.7333 4.015C13.17 3.80257 13.6518 3.69956 14.1371 3.71485C14.6225 3.73015 15.0968 3.86329 15.5192 4.10279C15.9416 4.3423 16.2994 4.68098 16.5618 5.08961C16.8241 5.49824 16.9831 5.96456 17.025 6.44833Z" fill="#A6D903"/>
<path d="M18.3234 13.8252C18.2567 14.6335 17.7401 15.3335 16.8734 15.8085C16.0401 16.2668 14.9901 16.4835 13.9484 16.4585C14.5484 15.9168 14.8984 15.2418 14.9651 14.5252C15.0484 13.4918 14.5567 12.5002 13.5734 11.7085C13.0151 11.2668 12.3651 10.9168 11.6567 10.6585C13.4984 10.1252 15.8151 10.4835 17.2401 11.6335C18.0067 12.2502 18.3984 13.0252 18.3234 13.8252Z" fill="#A6D903"/>
</svg>
