<svg width="20" height="20" viewBox="0 0 20 20" fill="none" xmlns="http://www.w3.org/2000/svg">
<path fill-rule="evenodd" clip-rule="evenodd" d="M1 9.5023C1 4.80903 4.80903 1 9.5023 1C14.2041 1 18.0046 4.80903 18.0046 9.5023C18.0046 10.6745 17.767 11.7915 17.3373 12.8079C16.7002 12.3335 15.9103 12.0528 15.055 12.0528C12.9419 12.0528 11.2289 13.7658 11.2289 15.8789C11.2289 16.5454 11.3993 17.172 11.699 17.7177C10.9982 17.9049 10.2618 18.0046 9.5023 18.0046C4.80903 18.0046 1 14.1956 1 9.5023ZM9.58733 12.8182L12.053 11.3983C12.6737 11.0412 13.0393 10.4035 13.0393 9.68935C13.0393 8.97516 12.6737 8.34599 12.0615 7.98889L9.59583 6.56901C8.97516 6.21191 8.24396 6.21191 7.6318 6.56901C7.01963 6.92611 6.65403 7.56378 6.65403 8.26947V11.1177C6.6515 11.4624 6.74072 11.8016 6.91255 12.1004C7.08438 12.3993 7.33262 12.647 7.6318 12.8182C7.92862 12.9912 8.26602 13.0823 8.60956 13.0823C8.95311 13.0823 9.29051 12.9912 9.58733 12.8182Z" fill="#A6D903"/>
<path fill-rule="evenodd" clip-rule="evenodd" d="M18.0307 15.8786C18.0307 17.5221 16.6984 18.8544 15.0549 18.8544C13.4114 18.8544 12.0791 17.5221 12.0791 15.8786C12.0791 14.2351 13.4114 12.9028 15.0549 12.9028C16.6984 12.9028 18.0307 14.2351 18.0307 15.8786ZM16.0425 14.3887L16.0422 14.389L16.5451 14.8919L16.5454 14.8916C16.6121 14.8249 16.6495 14.7344 16.6495 14.6401C16.6495 14.5458 16.6121 14.4554 16.5454 14.3887C16.4787 14.322 16.3882 14.2845 16.2939 14.2845C16.1996 14.2845 16.1092 14.322 16.0425 14.3887ZM15.792 14.1382C15.9251 14.0051 16.1057 13.9303 16.2939 13.9303C16.4822 13.9303 16.6628 14.0051 16.7959 14.1382C16.929 14.2713 17.0038 14.4519 17.0038 14.6401C17.0038 14.8284 16.929 15.009 16.7959 15.1421L16.6835 15.2545L16.4194 15.6575C16.4117 15.6693 16.4054 15.6819 16.4007 15.6952L15.8645 17.4504C15.839 17.534 15.7933 17.61 15.7315 17.6717C15.6696 17.7335 15.5935 17.779 15.5099 17.8044C15.4263 17.8297 15.3377 17.8341 15.252 17.8171C15.1662 17.8001 15.086 17.7623 15.0184 17.7069L15.1174 17.5859L15.0184 17.7069L14.0745 16.9346L14.0745 16.9346C14.0471 16.9122 14.022 16.8871 13.9996 16.8597L13.9996 16.8597L13.2273 15.9158L13.3563 15.8103L13.2273 15.9158C13.172 15.8482 13.1342 15.768 13.1172 15.6823C13.1002 15.5966 13.1046 15.508 13.1299 15.4244C13.1552 15.3408 13.2008 15.2647 13.2625 15.2028C13.3242 15.1409 13.4002 15.0952 13.4838 15.0697L15.239 14.5336C15.2523 14.5288 15.2649 14.5225 15.2767 14.5148L15.6787 14.2515L15.792 14.1382ZM15.4709 14.8112L15.7682 14.6164L15.8798 14.728L13.7311 15.9721L13.5015 15.6915C13.483 15.6689 13.4704 15.6421 13.4647 15.6134C13.459 15.5847 13.4605 15.5551 13.4689 15.5271C13.4774 15.4992 13.4926 15.4737 13.5133 15.453C13.5339 15.4323 13.5593 15.4171 13.5873 15.4085L15.3458 14.8714L15.3458 14.8715L15.3514 14.8696C15.3935 14.8552 15.4336 14.8355 15.4709 14.8112L15.3784 14.67L15.4709 14.8112ZM15.6822 15.2518L13.9583 16.2498L14.2738 16.6354C14.2813 16.6446 14.2897 16.653 14.2988 16.6605L14.2989 16.6605L14.6842 16.9757L15.6822 15.2518ZM14.9619 17.203L15.2427 17.4327C15.2654 17.4512 15.2922 17.4639 15.3209 17.4696C15.3495 17.4753 15.3791 17.4738 15.4071 17.4653C15.4351 17.4568 15.4605 17.4416 15.4812 17.421C15.5019 17.4003 15.5172 17.3749 15.5257 17.347L16.0629 15.5884L16.0646 15.5828L16.0647 15.5829C16.0791 15.5408 16.0987 15.5006 16.1231 15.4634L16.3179 15.1661L16.206 15.0542L14.9619 17.203Z" fill="#A6D903"/>
</svg>
