<svg width="24" height="24" viewBox="0 0 24 24" fill="none" xmlns="http://www.w3.org/2000/svg">
<g clip-path="url(#clip0_573_666)">
<path d="M12 12C14.5104 12 16.5455 9.96496 16.5455 7.45457C16.5455 4.94419 14.5104 2.90912 12 2.90912C9.48966 2.90912 7.45459 4.94419 7.45459 7.45457C7.45459 9.96496 9.48966 12 12 12Z" stroke="#7D7D7D" stroke-width="1.5" stroke-linecap="round" stroke-linejoin="round"/>
<path d="M10.1819 12H13.8183C15.7471 12 17.597 12.7662 18.9609 14.1301C20.3248 15.494 21.091 17.3439 21.091 19.2727C21.091 19.7549 20.8994 20.2174 20.5585 20.5584C20.2175 20.8994 19.755 21.0909 19.2728 21.0909H4.72736C4.24515 21.0909 3.78269 20.8994 3.44171 20.5584C3.10074 20.2174 2.90918 19.7549 2.90918 19.2727C2.90918 17.3439 3.67541 15.494 5.03931 14.1301C6.40321 12.7662 8.25306 12 10.1819 12Z" stroke="#7D7D7D" stroke-width="1.5" stroke-linecap="round" stroke-linejoin="round"/>
</g>
<defs>
<clipPath id="clip0_573_666">
<rect width="20" height="20" fill="white" transform="translate(2 2)"/>
</clipPath>
</defs>
</svg>
