<svg width="112" height="112" viewBox="0 0 112 112" fill="none" xmlns="http://www.w3.org/2000/svg">
<circle cx="56" cy="56" r="56" fill="#D9D9D9"/>
<path d="M55.4464 55.4459C58.3874 55.4459 61.2079 54.2776 63.2876 52.198C65.3672 50.1184 66.5355 47.2978 66.5355 44.3568C66.5355 41.4158 65.3672 38.5952 63.2876 36.5156C61.2079 34.436 58.3874 33.2677 55.4464 33.2677C52.5054 33.2677 49.6848 34.436 47.6052 36.5156C45.5256 38.5952 44.3573 41.4158 44.3573 44.3568C44.3573 47.2978 45.5256 50.1184 47.6052 52.198C49.6848 54.2776 52.5054 55.4459 55.4464 55.4459ZM55.4464 60.9905C44.3351 60.9905 35.2864 68.4424 35.2864 77.6241C35.2864 78.2451 35.7743 78.7331 36.3953 78.7331H74.4975C75.1184 78.7331 75.6064 78.2451 75.6064 77.6241C75.6064 68.4424 66.5577 60.9905 55.4464 60.9905Z" fill="black"/>
</svg>
