<svg width="20" height="20" viewBox="0 0 20 20" fill="none" xmlns="http://www.w3.org/2000/svg">
<path d="M13.5415 18.7498C13.9283 18.7498 14.2992 18.5962 14.5727 18.3227C14.8462 18.0492 14.9998 17.6783 14.9998 17.2915C14.9998 16.9047 14.8462 16.5338 14.5727 16.2603C14.2992 15.9868 13.9283 15.8332 13.5415 15.8332C13.1547 15.8332 12.7838 15.9868 12.5103 16.2603C12.2368 16.5338 12.0832 16.9047 12.0832 17.2915C12.0832 17.6783 12.2368 18.0492 12.5103 18.3227C12.7838 18.5962 13.1547 18.7498 13.5415 18.7498ZM6.87484 18.7498C7.26161 18.7498 7.63254 18.5962 7.90604 18.3227C8.17953 18.0492 8.33317 17.6783 8.33317 17.2915C8.33317 16.9047 8.17953 16.5338 7.90604 16.2603C7.63254 15.9868 7.26161 15.8332 6.87484 15.8332C6.48806 15.8332 6.11713 15.9868 5.84364 16.2603C5.57015 16.5338 5.4165 16.9047 5.4165 17.2915C5.4165 17.6783 5.57015 18.0492 5.84364 18.3227C6.11713 18.5962 6.48806 18.7498 6.87484 18.7498ZM4.03317 3.28317L3.8665 5.32484C3.83317 5.7165 4.1415 6.0415 4.53317 6.0415H17.2915C17.6415 6.0415 17.9332 5.77484 17.9582 5.42484C18.0665 3.94984 16.9415 2.74984 15.4665 2.74984H5.22484C5.1415 2.38317 4.97484 2.03317 4.7165 1.7415C4.29984 1.29984 3.7165 1.0415 3.1165 1.0415H1.6665C1.32484 1.0415 1.0415 1.32484 1.0415 1.6665C1.0415 2.00817 1.32484 2.2915 1.6665 2.2915H3.1165C3.37484 2.2915 3.6165 2.39984 3.7915 2.58317C3.9665 2.77484 4.04984 3.02484 4.03317 3.28317ZM17.0915 7.2915H4.30817C3.95817 7.2915 3.67484 7.55817 3.6415 7.89984L3.3415 11.5248C3.31289 11.8607 3.35433 12.1989 3.46319 12.5179C3.57205 12.8369 3.74597 13.1299 3.97392 13.3782C4.20188 13.6265 4.47891 13.8248 4.78747 13.9605C5.09604 14.0962 5.42942 14.1663 5.7665 14.1665H15.0332C16.2832 14.1665 17.3832 13.1415 17.4748 11.8915L17.7498 7.99984C17.7578 7.90905 17.7466 7.81761 17.717 7.73143C17.6874 7.64524 17.64 7.56622 17.578 7.49946C17.5159 7.43271 17.4406 7.37972 17.3568 7.34389C17.273 7.30807 17.1826 7.29023 17.0915 7.2915Z" fill="#A6D903"/>
</svg>
