<svg width="24" height="24" viewBox="0 0 24 24" fill="none" xmlns="http://www.w3.org/2000/svg">
<path d="M3 20.2636H23M20.0727 20.2727V16.2182M4 20.2636V5.74545C4 3.91818 4.90909 3 6.71818 3H12.3818C14.1909 3 15.0909 3.91818 15.0909 5.74545V20.2636M7.36364 7.76364H11.8636M7.36364 11.1727H11.8636M9.59091 20.2636V16.8545M20.0909 10.1636C18.9818 10.1636 18.0909 11.0545 18.0909 12.1636V14.2273C18.0909 15.3364 18.9818 16.2273 20.0909 16.2273C21.2 16.2273 22.0909 15.3364 22.0909 14.2273V12.1636C22.0909 11.0545 21.2 10.1636 20.0909 10.1636Z" stroke="#A6D903" stroke-width="1.34133" stroke-miterlimit="10" stroke-linecap="round" stroke-linejoin="round"/>
</svg>
