<svg width="32" height="32" viewBox="0 0 32 32" fill="none" xmlns="http://www.w3.org/2000/svg">
<path d="M12.2871 17.6172H19.7107V31.4447L15.9989 28.7809L12.2871 31.4447V17.6172Z" fill="#A6D903"/>
<path d="M13.2949 20.665H18.7051V30.7422L16 28.8009L13.2949 30.7422V20.665Z" fill="#6F8C10"/>
<circle cx="15.9993" cy="13.3314" r="10.2432" fill="#A6D903" stroke="#3B3C43" stroke-width="0.808014"/>
<circle cx="16.0005" cy="13.3315" r="6.90868" fill="#6F8C10"/>
<path d="M15.3437 9.24877C15.5505 8.61226 16.451 8.61226 16.6578 9.24877L17.4035 11.5438H19.8166C20.4859 11.5438 20.7642 12.4002 20.2227 12.7936L18.2705 14.212L19.0162 16.507C19.223 17.1435 18.4945 17.6728 17.953 17.2794L16.0008 15.861L14.0485 17.2794C13.507 17.6728 12.7785 17.1435 12.9854 16.507L13.7311 14.212L11.7788 12.7936C11.2373 12.4002 11.5156 11.5438 12.1849 11.5438H14.598L15.3437 9.24877Z" fill="white"/>
</svg>
