<svg width="20" height="20" viewBox="0 0 20 20" fill="none" xmlns="http://www.w3.org/2000/svg">
<path d="M16.8401 6.51735L10.4234 10.234C10.1651 10.384 9.84006 10.384 9.5734 10.234L3.15673 6.51735C2.6984 6.25068 2.58173 5.62568 2.93173 5.23402C3.1734 4.95902 3.4484 4.73402 3.74007 4.57568L8.25673 2.07568C9.2234 1.53402 10.7901 1.53402 11.7567 2.07568L16.2734 4.57568C16.5651 4.73402 16.8401 4.96735 17.0817 5.23402C17.4151 5.62568 17.2984 6.25068 16.8401 6.51735ZM9.52507 11.7823V17.4657C9.52507 18.099 8.8834 18.5157 8.31673 18.2407C6.60006 17.399 3.7084 15.824 3.7084 15.824C2.69173 15.249 1.8584 13.799 1.8584 12.6073V8.30735C1.8584 7.64902 2.55007 7.23235 3.11673 7.55735L9.1084 11.0324C9.3584 11.1907 9.52507 11.474 9.52507 11.7823ZM10.4751 11.7823V17.4657C10.4751 18.099 11.1167 18.5157 11.6834 18.2407C13.4001 17.399 16.2917 15.824 16.2917 15.824C17.3084 15.249 18.1417 13.799 18.1417 12.6073V8.30735C18.1417 7.64902 17.4501 7.23235 16.8834 7.55735L10.8917 11.0324C10.6417 11.1907 10.4751 11.474 10.4751 11.7823Z" fill="#A6D903"/>
</svg>
