<svg width="24" height="24" viewBox="0 0 24 24" fill="none" xmlns="http://www.w3.org/2000/svg">
<g clip-path="url(#clip0_245_595)">
<path d="M20.3922 20.4897L12.1833 21.9668C12.1623 21.9717 12.1403 21.972 12.1191 21.9677C12.0979 21.9633 12.0779 21.9544 12.0604 21.9415C12.043 21.9287 12.0286 21.9122 12.0181 21.8932C12.0077 21.8742 12.0015 21.8532 12 21.8316V9.40424L19.6078 8.03532C19.883 7.97086 20.169 7.96694 20.4459 8.02385C20.7228 8.08076 20.984 8.19713 21.2115 8.36493C21.439 8.53273 21.6273 8.74794 21.7635 8.99568C21.8996 9.24342 21.9803 9.51778 22 9.79977V18.7253C21.9818 19.1614 21.8107 19.5771 21.5168 19.8997C21.2228 20.2223 20.8247 20.4312 20.3922 20.4897Z" fill="#A6D903" stroke="#242529" stroke-width="1.5" stroke-linecap="round" stroke-linejoin="round"/>
<path d="M12 9.40424L4.39223 8.03532C4.11699 7.97086 3.83104 7.96694 3.55415 8.02385C3.27725 8.08076 3.01602 8.19713 2.78852 8.36493C2.56102 8.53273 2.3727 8.74794 2.23655 8.99568C2.1004 9.24342 2.01969 9.51778 2 9.79977V18.7253C2.0182 19.1614 2.18927 19.5771 2.48322 19.8997C2.77718 20.2223 3.17528 20.4312 3.60777 20.4897L12 21.9998V9.40424Z" fill="#A6D903" stroke="#242529" stroke-width="1.5" stroke-linecap="round" stroke-linejoin="round"/>
<path d="M10 6.42622C10.2452 6.13031 10.554 5.89343 10.9033 5.73316C11.2526 5.57289 11.6335 5.49335 12.0177 5.50043C12.402 5.50752 12.7797 5.60104 13.1229 5.77407C13.466 5.9471 13.7658 6.19519 14 6.49993" stroke="#A6D903" stroke-width="1.5" stroke-linecap="round" stroke-linejoin="round"/>
<path d="M8 3.85245C8.49047 3.26064 9.10792 2.78688 9.80653 2.46634C10.5051 2.1458 11.267 1.98671 12.0355 2.00087C12.804 2.01503 13.5594 2.20209 14.2458 2.54816C14.9321 2.89422 15.5317 3.3904 16 3.99988" stroke="#A6D903" stroke-width="1.5" stroke-linecap="round" stroke-linejoin="round"/>
</g>
<defs>
<clipPath id="clip0_245_595">
<rect width="22" height="22" fill="white" transform="translate(1 1)"/>
</clipPath>
</defs>
</svg>
