<svg width="20" height="20" viewBox="0 0 20 20" fill="none" xmlns="http://www.w3.org/2000/svg">
<path d="M11.6667 2.43341V9.35841C11.6667 10.2084 10.975 10.9001 10.125 10.9001H2.49999C2.04166 10.9001 1.66666 10.5251 1.66666 10.0667V4.74175C1.66666 3.04175 3.04166 1.66675 4.74166 1.66675H10.8917C11.325 1.66675 11.6667 2.00841 11.6667 2.43341Z" fill="#A6D903"/>
<path d="M17.9167 12.9167C18.15 12.9167 18.3333 13.1001 18.3333 13.3334V14.1667C18.3333 15.5501 17.2167 16.6667 15.8333 16.6667C15.8333 15.2917 14.7083 14.1667 13.3333 14.1667C11.9583 14.1667 10.8333 15.2917 10.8333 16.6667H9.16666C9.16666 15.2917 8.04166 14.1667 6.66666 14.1667C5.29166 14.1667 4.16666 15.2917 4.16666 16.6667C2.78332 16.6667 1.66666 15.5501 1.66666 14.1667V12.5001C1.66666 12.0417 2.04166 11.6667 2.49999 11.6667H10.4167C10.9692 11.6667 11.4991 11.4473 11.8898 11.0566C12.2805 10.6659 12.5 10.1359 12.5 9.58341V5.00008C12.5 4.54175 12.875 4.16675 13.3333 4.16675H14.0333C14.6333 4.16675 15.1833 4.49175 15.4833 5.00841L16.0167 5.94175C16.0917 6.07508 15.9917 6.25008 15.8333 6.25008C15.2808 6.25008 14.7509 6.46957 14.3602 6.86028C13.9695 7.25098 13.75 7.78088 13.75 8.33341V10.8334C13.75 11.3859 13.9695 11.9159 14.3602 12.3066C14.7509 12.6973 15.2808 12.9167 15.8333 12.9167H17.9167Z" fill="#A6D903"/>
<path d="M6.66667 18.3333C7.10869 18.3333 7.53262 18.1577 7.84518 17.8452C8.15774 17.5326 8.33333 17.1087 8.33333 16.6667C8.33333 16.2246 8.15774 15.8007 7.84518 15.4882C7.53262 15.1756 7.10869 15 6.66667 15C6.22464 15 5.80072 15.1756 5.48816 15.4882C5.17559 15.8007 5 16.2246 5 16.6667C5 17.1087 5.17559 17.5326 5.48816 17.8452C5.80072 18.1577 6.22464 18.3333 6.66667 18.3333ZM13.3333 18.3333C13.7754 18.3333 14.1993 18.1577 14.5118 17.8452C14.8244 17.5326 15 17.1087 15 16.6667C15 16.2246 14.8244 15.8007 14.5118 15.4882C14.1993 15.1756 13.7754 15 13.3333 15C12.8913 15 12.4674 15.1756 12.1548 15.4882C11.8423 15.8007 11.6667 16.2246 11.6667 16.6667C11.6667 17.1087 11.8423 17.5326 12.1548 17.8452C12.4674 18.1577 12.8913 18.3333 13.3333 18.3333ZM18.3333 10.4417V11.6667H15.8333C15.375 11.6667 15 11.2917 15 10.8333V8.33333C15 7.875 15.375 7.5 15.8333 7.5H16.9083L18.1167 9.61667C18.2583 9.86667 18.3333 10.15 18.3333 10.4417Z" fill="#A6D903"/>
</svg>
