<svg width="24" height="24" viewBox="0 0 24 24" fill="none" xmlns="http://www.w3.org/2000/svg">
<path d="M13.7901 8.68999C13.7901 8.68999 12.7701 7.78999 10.9801 8.41999C9.33005 8.98999 9.41005 11.25 11.9101 11.85" stroke="#A6D903" stroke-width="1.5" stroke-miterlimit="10" stroke-linecap="round" stroke-linejoin="round"/>
<path d="M9.87 14.97C9.87 14.97 10.89 15.87 12.68 15.24C14.34 14.66 14.26 12.4 11.75 11.8" stroke="#A6D903" stroke-width="1.5" stroke-miterlimit="10" stroke-linecap="round" stroke-linejoin="round"/>
<path d="M12.01 8.19998V6.72998" stroke="#A6D903" stroke-width="1.5" stroke-miterlimit="10" stroke-linecap="round" stroke-linejoin="round"/>
<path d="M12.01 16.93V15.46" stroke="#A6D903" stroke-width="1.5" stroke-miterlimit="10" stroke-linecap="round" stroke-linejoin="round"/>
<path d="M11.83 21.06C16.9276 21.06 21.06 16.9276 21.06 11.83C21.06 6.73239 16.9276 2.59998 11.83 2.59998C6.73239 2.59998 2.59998 6.73239 2.59998 11.83C2.59998 16.9276 6.73239 21.06 11.83 21.06Z" stroke="#A6D903" stroke-width="1.5" stroke-miterlimit="10" stroke-linecap="round" stroke-linejoin="round"/>
</svg>
