<svg width="20" height="20" viewBox="0 0 20 20" fill="none" xmlns="http://www.w3.org/2000/svg">
<path fill-rule="evenodd" clip-rule="evenodd" d="M19.0307 3.87864C19.0307 5.52213 17.6984 6.85444 16.0549 6.85444C14.4114 6.85444 13.0791 5.52213 13.0791 3.87864C13.0791 2.23515 14.4114 0.902832 16.0549 0.902832C17.6984 0.902832 19.0307 2.23515 19.0307 3.87864ZM17.0425 2.38868L17.0422 2.389L17.5451 2.8919L17.5454 2.89158C17.6121 2.82489 17.6495 2.73444 17.6495 2.64013C17.6495 2.54582 17.6121 2.45537 17.5454 2.38868C17.4787 2.32199 17.3882 2.28452 17.2939 2.28452C17.1996 2.28452 17.1092 2.32199 17.0425 2.38868ZM16.792 2.13818C16.9251 2.00505 17.1057 1.93026 17.2939 1.93026C17.4822 1.93026 17.6628 2.00505 17.7959 2.13818C17.929 2.2713 18.0038 2.45186 18.0038 2.64013C18.0038 2.8284 17.929 3.00895 17.7959 3.14208L17.6835 3.25447L17.4194 3.65752C17.4117 3.66929 17.4054 3.68194 17.4007 3.69519L16.8645 5.45045C16.839 5.53402 16.7933 5.61002 16.7315 5.67174C16.6696 5.73346 16.5935 5.779 16.5099 5.80435C16.4263 5.8297 16.3377 5.83407 16.252 5.81708C16.1662 5.80008 16.086 5.76225 16.0184 5.70692L16.1174 5.58592L16.0184 5.70692L15.0745 4.93464L15.0745 4.93464C15.0471 4.91223 15.022 4.88714 14.9996 4.85975L14.9996 4.85974L14.2273 3.91585L14.3563 3.81031L14.2273 3.91585C14.172 3.84822 14.1342 3.76801 14.1172 3.68229C14.1002 3.59658 14.1046 3.508 14.1299 3.42438C14.1552 3.34076 14.2008 3.26466 14.2625 3.2028C14.3242 3.14095 14.4002 3.09524 14.4838 3.06971L16.239 2.53357C16.2523 2.52884 16.2649 2.52254 16.2767 2.51483L16.6787 2.25148L16.792 2.13818ZM16.4709 2.81116L16.7682 2.61638L16.8798 2.72805L14.7311 3.97207L14.5015 3.69152C14.483 3.6689 14.4704 3.64207 14.4647 3.6134C14.459 3.58474 14.4605 3.55511 14.4689 3.52714C14.4774 3.49917 14.4926 3.47372 14.5133 3.45303C14.5339 3.43235 14.5593 3.41706 14.5873 3.40852L16.3458 2.87138L16.3458 2.87147L16.3514 2.86958C16.3935 2.85518 16.4336 2.83555 16.4709 2.81116L16.3784 2.66997L16.4709 2.81116ZM16.6822 3.25182L14.9583 4.24984L15.2738 4.6354C15.2813 4.64457 15.2897 4.65296 15.2988 4.66046L15.2989 4.66046L15.6842 4.97571L16.6822 3.25182ZM15.9619 5.20298L16.2427 5.43273C16.2654 5.45124 16.2922 5.46389 16.3209 5.46958C16.3495 5.47526 16.3791 5.4738 16.4071 5.46532C16.4351 5.45684 16.4605 5.44161 16.4812 5.42097C16.5019 5.40032 16.5172 5.3749 16.5257 5.34695L17.0629 3.58843L17.0646 3.58284L17.0647 3.58287C17.0791 3.54076 17.0987 3.50061 17.1231 3.46337L17.3179 3.16609L17.206 3.05418L15.9619 5.20298Z" fill="#A6D903"/>
<path d="M18.3332 9.99987C18.3332 8.90821 18.1248 7.85821 17.7332 6.89987C17.4748 7.08321 17.1832 7.22487 16.8748 7.32487C16.7832 7.35821 16.6915 7.38321 16.5915 7.40821C17.0942 8.68459 17.2146 10.0797 16.9379 11.4233C16.6611 12.767 15.9993 14.001 15.0332 14.9749C14.7915 14.6665 14.4832 14.3832 14.1165 14.1415C11.8582 12.6249 8.15817 12.6249 5.88317 14.1415C5.5165 14.3832 5.2165 14.6665 4.9665 14.9749C3.65385 13.6518 2.91704 11.8637 2.9165 9.99987C2.9165 6.09154 6.0915 2.91654 9.99984 2.91654C10.9082 2.91654 11.7832 3.09154 12.5832 3.40821C12.6082 3.30821 12.6332 3.21654 12.6665 3.11654C12.7665 2.80821 12.9082 2.52487 13.0998 2.26654C12.1153 1.86719 11.0623 1.6634 9.99984 1.66654C5.40817 1.66654 1.6665 5.40821 1.6665 9.99987C1.6665 12.4165 2.70817 14.5915 4.35817 16.1165C4.35817 16.1249 4.35817 16.1249 4.34984 16.1332C4.43317 16.2165 4.53317 16.2832 4.6165 16.3582C4.6665 16.3999 4.70817 16.4415 4.75817 16.4749C4.90817 16.5999 5.07484 16.7165 5.23317 16.8332L5.39984 16.9499C5.55817 17.0582 5.72484 17.1582 5.89984 17.2499C5.95817 17.2832 6.02484 17.3249 6.08317 17.3582C6.24984 17.4499 6.42484 17.5332 6.60817 17.6082C6.67484 17.6415 6.7415 17.6749 6.80817 17.6999C6.9915 17.7749 7.17484 17.8415 7.35817 17.8999C7.42484 17.9249 7.4915 17.9499 7.55817 17.9665C7.75817 18.0249 7.95817 18.0749 8.15817 18.1249C8.2165 18.1415 8.27484 18.1582 8.3415 18.1665C8.57484 18.2165 8.80817 18.2499 9.04984 18.2749C9.08317 18.2749 9.1165 18.2832 9.14984 18.2915C9.43317 18.3165 9.7165 18.3332 9.99984 18.3332C10.2832 18.3332 10.5665 18.3165 10.8415 18.2915C10.8748 18.2915 10.9082 18.2832 10.9415 18.2749C11.1832 18.2499 11.4165 18.2165 11.6498 18.1665C11.7082 18.1582 11.7665 18.1332 11.8332 18.1249C12.0332 18.0749 12.2415 18.0332 12.4332 17.9665C12.4998 17.9415 12.5665 17.9165 12.6332 17.8999C12.8165 17.8332 13.0082 17.7749 13.1832 17.6999C13.2498 17.6749 13.3165 17.6415 13.3832 17.6082C13.5582 17.5332 13.7332 17.4499 13.9082 17.3582C13.9748 17.3249 14.0332 17.2832 14.0915 17.2499C14.2582 17.1499 14.4248 17.0582 14.5915 16.9499C14.6498 16.9165 14.6998 16.8749 14.7582 16.8332C14.9248 16.7165 15.0832 16.5999 15.2332 16.4749C15.2832 16.4332 15.3248 16.3915 15.3748 16.3582C15.4665 16.2832 15.5582 16.2082 15.6415 16.1332C15.6415 16.1249 15.6415 16.1249 15.6332 16.1165C17.2915 14.5915 18.3332 12.4165 18.3332 9.99987Z" fill="#A6D903"/>
<path d="M10 5.7749C8.275 5.7749 6.875 7.1749 6.875 8.8999C6.875 10.5916 8.2 11.9666 9.95833 12.0166H10.1083C10.9173 11.99 11.6842 11.65 12.2471 11.0684C12.81 10.4869 13.1248 9.70927 13.125 8.8999C13.125 7.1749 11.725 5.7749 10 5.7749Z" fill="#A6D903"/>
</svg>
