<svg width="20" height="20" viewBox="0 0 20 20" fill="none" xmlns="http://www.w3.org/2000/svg">
<g clip-path="url(#clip0_1464_430)">
<path d="M7.22665 11.9417C7.22665 13.0167 8.05165 13.8833 9.07665 13.8833H11.1683C12.06 13.8833 12.785 13.125 12.785 12.1917C12.785 11.175 12.3433 10.8167 11.685 10.5833L8.32665 9.41667C7.66832 9.18333 7.22665 8.825 7.22665 7.80833C7.22665 6.875 7.95165 6.11667 8.84332 6.11667H10.935C11.96 6.11667 12.785 6.98333 12.785 8.05833M9.99999 5V15" stroke="#A6D903" stroke-width="1.5" stroke-linecap="round" stroke-linejoin="round"/>
<path d="M9.99999 18.3332C14.6025 18.3332 18.3333 14.6023 18.3333 9.99984C18.3333 5.39734 14.6025 1.6665 9.99999 1.6665C5.39749 1.6665 1.66666 5.39734 1.66666 9.99984C1.66666 14.6023 5.39749 18.3332 9.99999 18.3332Z" stroke="#A6D903" stroke-width="1.5" stroke-linecap="round" stroke-linejoin="round"/>
</g>
<defs>
<clipPath id="clip0_1464_430">
<rect width="20" height="20" fill="white"/>
</clipPath>
</defs>
</svg>
