<svg width="20" height="20" viewBox="0 0 20 20" fill="none" xmlns="http://www.w3.org/2000/svg">
<path d="M17.9667 8.94844L16.8417 7.63177C16.6333 7.38177 16.4583 6.9151 16.4583 6.58177V5.1651C16.4583 4.28177 15.7333 3.55677 14.85 3.55677H13.4333C13.1 3.55677 12.625 3.38177 12.375 3.17344L11.0583 2.04844C10.4833 1.55677 9.54167 1.55677 8.96667 2.04844L7.63334 3.17344C7.38334 3.38177 6.91667 3.55677 6.58334 3.55677H5.14167C4.25834 3.55677 3.53334 4.28177 3.53334 5.1651V6.58177C3.53334 6.90677 3.36667 7.37344 3.15834 7.62344L2.03334 8.94844C1.55 9.53177 1.55 10.4651 2.03334 11.0318L3.15834 12.3568C3.36667 12.5984 3.53334 13.0734 3.53334 13.3984V14.8234C3.53334 15.7068 4.25834 16.4318 5.14167 16.4318H6.59167C6.91667 16.4318 7.39167 16.6068 7.64167 16.8151L8.95834 17.9401C9.53334 18.4318 10.475 18.4318 11.05 17.9401L12.3667 16.8151C12.6167 16.6068 13.0833 16.4318 13.4167 16.4318H14.8333C15.7167 16.4318 16.4417 15.7068 16.4417 14.8234V13.4068C16.4417 13.0734 16.6167 12.6068 16.825 12.3568L17.95 11.0401C18.4583 10.4734 18.4583 9.53177 17.9667 8.94844ZM9.375 6.77344C9.375 6.43177 9.65834 6.14844 10 6.14844C10.3417 6.14844 10.625 6.43177 10.625 6.77344V10.7984C10.625 11.1401 10.3417 11.4234 10 11.4234C9.65834 11.4234 9.375 11.1401 9.375 10.7984V6.77344ZM10 14.0568C9.54167 14.0568 9.16667 13.6818 9.16667 13.2234C9.16667 12.7651 9.53334 12.3901 10 12.3901C10.4583 12.3901 10.8333 12.7651 10.8333 13.2234C10.8333 13.6818 10.4667 14.0568 10 14.0568Z" fill="#A6D903"/>
</svg>
