<svg width="20" height="20" viewBox="0 0 20 20" fill="none" xmlns="http://www.w3.org/2000/svg">
<path d="M18.3083 1.94186C17.9984 1.59167 17.6173 1.31166 17.1905 1.12053C16.7637 0.929399 16.301 0.831552 15.8333 0.833525C15.3954 0.832977 14.9617 0.918822 14.5571 1.08614C14.1524 1.25346 13.7847 1.49898 13.4751 1.80861C13.1655 2.11825 12.9199 2.48593 12.7526 2.8906C12.5853 3.29526 12.4995 3.72897 12.5 4.16686C12.5 4.79186 12.675 5.38353 12.9833 5.88353C13.15 6.16686 13.3667 6.42519 13.6167 6.64186C14.2 7.17519 14.975 7.50019 15.8333 7.50019C16.2 7.50019 16.55 7.44186 16.875 7.32519C17.6417 7.08353 18.2833 6.55853 18.6833 5.88353C18.8583 5.60019 18.9917 5.27519 19.0667 4.94186C19.1333 4.69186 19.1667 4.43353 19.1667 4.16686C19.1667 3.31686 18.8417 2.53353 18.3083 1.94186ZM17.075 4.77519H16.4583V5.42519C16.4583 5.76686 16.175 6.05019 15.8333 6.05019C15.4917 6.05019 15.2083 5.76686 15.2083 5.42519V4.77519H14.5917C14.25 4.77519 13.9667 4.49186 13.9667 4.15019C13.9667 3.80853 14.25 3.52519 14.5917 3.52519H15.2083V2.93353C15.2083 2.59186 15.4917 2.30853 15.8333 2.30853C16.175 2.30853 16.4583 2.59186 16.4583 2.93353V3.52519H17.075C17.2408 3.52519 17.3997 3.59104 17.5169 3.70825C17.6342 3.82546 17.7 3.98443 17.7 4.15019C17.7 4.31595 17.6342 4.47492 17.5169 4.59213C17.3997 4.70934 17.2408 4.77519 17.075 4.77519Z" fill="#A6D903"/>
<path d="M18.3332 9.99987C18.3332 8.90821 18.1248 7.85821 17.7332 6.89987C17.4748 7.08321 17.1832 7.22487 16.8748 7.32487C16.7832 7.35821 16.6915 7.38321 16.5915 7.40821C17.0942 8.68459 17.2146 10.0797 16.9379 11.4233C16.6611 12.767 15.9993 14.001 15.0332 14.9749C14.7915 14.6665 14.4832 14.3832 14.1165 14.1415C11.8582 12.6249 8.15817 12.6249 5.88317 14.1415C5.5165 14.3832 5.2165 14.6665 4.9665 14.9749C3.65385 13.6518 2.91704 11.8637 2.9165 9.99987C2.9165 6.09154 6.0915 2.91654 9.99984 2.91654C10.9082 2.91654 11.7832 3.09154 12.5832 3.40821C12.6082 3.30821 12.6332 3.21654 12.6665 3.11654C12.7665 2.80821 12.9082 2.52487 13.0998 2.26654C12.1153 1.86719 11.0623 1.6634 9.99984 1.66654C5.40817 1.66654 1.6665 5.40821 1.6665 9.99987C1.6665 12.4165 2.70817 14.5915 4.35817 16.1165C4.35817 16.1249 4.35817 16.1249 4.34984 16.1332C4.43317 16.2165 4.53317 16.2832 4.6165 16.3582C4.6665 16.3999 4.70817 16.4415 4.75817 16.4749C4.90817 16.5999 5.07484 16.7165 5.23317 16.8332L5.39984 16.9499C5.55817 17.0582 5.72484 17.1582 5.89984 17.2499C5.95817 17.2832 6.02484 17.3249 6.08317 17.3582C6.24984 17.4499 6.42484 17.5332 6.60817 17.6082C6.67484 17.6415 6.7415 17.6749 6.80817 17.6999C6.9915 17.7749 7.17484 17.8415 7.35817 17.8999C7.42484 17.9249 7.4915 17.9499 7.55817 17.9665C7.75817 18.0249 7.95817 18.0749 8.15817 18.1249C8.2165 18.1415 8.27484 18.1582 8.3415 18.1665C8.57484 18.2165 8.80817 18.2499 9.04984 18.2749C9.08317 18.2749 9.1165 18.2832 9.14984 18.2915C9.43317 18.3165 9.7165 18.3332 9.99984 18.3332C10.2832 18.3332 10.5665 18.3165 10.8415 18.2915C10.8748 18.2915 10.9082 18.2832 10.9415 18.2749C11.1832 18.2499 11.4165 18.2165 11.6498 18.1665C11.7082 18.1582 11.7665 18.1332 11.8332 18.1249C12.0332 18.0749 12.2415 18.0332 12.4332 17.9665C12.4998 17.9415 12.5665 17.9165 12.6332 17.8999C12.8165 17.8332 13.0082 17.7749 13.1832 17.6999C13.2498 17.6749 13.3165 17.6415 13.3832 17.6082C13.5582 17.5332 13.7332 17.4499 13.9082 17.3582C13.9748 17.3249 14.0332 17.2832 14.0915 17.2499C14.2582 17.1499 14.4248 17.0582 14.5915 16.9499C14.6498 16.9165 14.6998 16.8749 14.7582 16.8332C14.9248 16.7165 15.0832 16.5999 15.2332 16.4749C15.2832 16.4332 15.3248 16.3915 15.3748 16.3582C15.4665 16.2832 15.5582 16.2082 15.6415 16.1332C15.6415 16.1249 15.6415 16.1249 15.6332 16.1165C17.2915 14.5915 18.3332 12.4165 18.3332 9.99987Z" fill="#A6D903"/>
<path d="M10 5.7749C8.275 5.7749 6.875 7.1749 6.875 8.8999C6.875 10.5916 8.2 11.9666 9.95833 12.0166H10.1083C10.9173 11.99 11.6842 11.65 12.2471 11.0684C12.81 10.4869 13.1248 9.70927 13.125 8.8999C13.125 7.1749 11.725 5.7749 10 5.7749Z" fill="#A6D903"/>
</svg>
