<svg width="24" height="24" viewBox="0 0 24 24" fill="none" xmlns="http://www.w3.org/2000/svg">
<g clip-path="url(#clip0_573_646)">
<path d="M6 7C7.10457 7 8 6.10457 8 5C8 3.89543 7.10457 3 6 3C4.89543 3 4 3.89543 4 5C4 6.10457 4.89543 7 6 7Z" fill="#A6D903"/>
<path d="M18 7C19.1046 7 20 6.10457 20 5C20 3.89543 19.1046 3 18 3C16.8954 3 16 3.89543 16 5C16 6.10457 16.8954 7 18 7Z" fill="#A6D903"/>
<path d="M12 8C13.6569 8 15 6.65685 15 5C15 3.34315 13.6569 2 12 2C10.3431 2 9 3.34315 9 5C9 6.65685 10.3431 8 12 8Z" fill="#A6D903"/>
<path d="M22 14.89V17C22 17.5304 21.7893 18.0391 21.4142 18.4142C21.0391 18.7893 20.5304 19 20 19H18V18C18.0024 17.2118 17.848 16.4311 17.5458 15.7032C17.2437 14.9753 16.7998 14.3147 16.24 13.76C15.7974 13.3093 15.2839 12.9343 14.72 12.6499C15.0746 12.1381 15.5486 11.7204 16.101 11.433C16.6533 11.1455 17.2673 10.9968 17.89 10.9999H18.11C18.6208 10.9999 19.1267 11.1005 19.5986 11.296C20.0706 11.4915 20.4994 11.7781 20.8606 12.1393C21.2219 12.5005 21.5084 12.9294 21.7039 13.4013C21.8994 13.8733 22 14.3791 22 14.89Z" fill="#A6D903" stroke="#242529" stroke-width="1.5" stroke-linecap="round" stroke-linejoin="round"/>
<path d="M9.28 12.65C8.29257 13.1519 7.46342 13.9175 6.88447 14.8618C6.30552 15.8061 5.99938 16.8923 6 18V19H4C3.46957 19 2.96086 18.7893 2.58578 18.4142C2.21071 18.0391 2 17.5304 2 17V14.89C2 13.8583 2.40984 12.8689 3.13936 12.1393C3.86888 11.4098 4.85831 11 5.89 11H6.11C6.73266 10.9969 7.34669 11.1455 7.89902 11.433C8.45134 11.7205 8.92533 12.1382 9.28 12.65Z" fill="#A6D903" stroke="#242529" stroke-width="1.5" stroke-linecap="round" stroke-linejoin="round"/>
<path d="M18 18V19.87C18.0001 20.1327 17.9484 20.3928 17.8479 20.6355C17.7474 20.8781 17.6001 21.0986 17.4144 21.2844C17.2286 21.4701 17.0081 21.6174 16.7655 21.7179C16.5228 21.8184 16.2627 21.8701 16 21.87H8C7.73734 21.8701 7.47723 21.8184 7.23455 21.7179C6.99187 21.6174 6.77136 21.4701 6.58563 21.2844C6.3999 21.0986 6.25259 20.8781 6.1521 20.6355C6.05162 20.3928 5.99993 20.1327 6 19.87V18C5.99938 16.8923 6.30552 15.8061 6.88447 14.8618C7.46342 13.9175 8.29257 13.1519 9.28 12.65C10.1215 12.2185 11.0544 11.9956 12 12C12.9457 11.9956 13.8785 12.2185 14.72 12.65C15.284 12.9344 15.7974 13.3094 16.24 13.7601C16.7998 14.3148 17.2437 14.9754 17.5458 15.7033C17.848 16.4312 18.0024 17.2119 18 18Z" fill="#A6D903" stroke="#242529" stroke-width="1.5" stroke-linecap="round" stroke-linejoin="round"/>
</g>
<defs>
<clipPath id="clip0_573_646">
<rect width="22" height="21.87" fill="white" transform="translate(1 1)"/>
</clipPath>
</defs>
</svg>
