<svg width="32" height="32" viewBox="0 0 32 32" fill="none" xmlns="http://www.w3.org/2000/svg">
<rect width="7.45379" height="11.734" rx="1" transform="matrix(-0.866025 -0.5 -0.5 0.866025 27.8535 3.91602)" fill="#A6D903"/>
<rect width="5.32135" height="11.734" transform="matrix(-0.866025 -0.5 -0.5 0.866025 26.9297 3.38379)" fill="#6F8C10"/>
<rect width="7.45379" height="11.734" rx="1" transform="matrix(-0.866025 0.5 0.5 0.866025 10.1328 0.1875)" fill="#A6D903"/>
<rect width="5.32135" height="11.734" transform="matrix(-0.866025 0.5 0.5 0.866025 9.21094 0.719727)" fill="#6F8C10"/>
<path d="M17.7935 8.3615C16.8319 7.30406 15.1688 7.30406 14.2071 8.3615L13.1028 9.57588C12.7877 9.92237 12.3223 10.0917 11.8582 10.0289L10.2317 9.80845C8.81531 9.61653 7.54128 10.6856 7.48434 12.1137L7.41895 13.7539C7.40029 14.2218 7.15268 14.6507 6.75674 14.9008L5.36904 15.7775C4.16068 16.5409 3.87188 18.1788 4.74627 19.3094L5.75043 20.6079C6.03694 20.9784 6.12294 21.4661 5.98041 21.9122L5.4809 23.4758C5.04595 24.8373 5.87752 26.2776 7.2741 26.5817L8.87796 26.9309C9.33558 27.0305 9.71493 27.3488 9.89252 27.7822L10.5149 29.3011C11.0569 30.6236 12.6197 31.1924 13.885 30.5277L15.3381 29.7642C15.7527 29.5464 16.2479 29.5464 16.6625 29.7642L18.1156 30.5277C19.3809 31.1924 20.9438 30.6236 21.4857 29.3011L22.1081 27.7822C22.2857 27.3488 22.6651 27.0305 23.1227 26.9309L24.7266 26.5817C26.1231 26.2776 26.9547 24.8373 26.5198 23.4758L26.0202 21.9122C25.8777 21.4661 25.9637 20.9784 26.2502 20.6079L27.2544 19.3094C28.1288 18.1788 27.84 16.5409 26.6316 15.7775L25.2439 14.9008C24.848 14.6507 24.6004 14.2218 24.5817 13.7539L24.5163 12.1137C24.4594 10.6856 23.1853 9.61653 21.769 9.80845L20.1424 10.0289C19.6783 10.0917 19.213 9.92237 18.8979 9.57588L17.7935 8.3615Z" fill="#A6D903" stroke="#3B3C43"/>
<circle cx="16.0014" cy="19.473" r="8.5502" fill="#6F8C10"/>
<path d="M18.368 17.3131C18.5708 16.6889 19.4538 16.6889 19.6566 17.3131L20.2739 19.2129H22.2715C22.9278 19.2129 23.2007 20.0527 22.6697 20.4385L21.0536 21.6127L21.6709 23.5126C21.8737 24.1367 21.1593 24.6558 20.6284 24.27L19.0123 23.0958L17.3961 24.27C16.8652 24.6558 16.1508 24.1367 16.3536 23.5126L16.9709 21.6127L15.3548 20.4385C14.8239 20.0527 15.0967 19.2129 15.753 19.2129H17.7507L18.368 17.3131Z" fill="white"/>
<path d="M11.784 15.0719C11.9868 14.4477 12.8698 14.4477 13.0726 15.0719L13.6899 16.9717H15.6876C16.3438 16.9717 16.6167 17.8115 16.0858 18.1973L14.4696 19.3715L15.0869 21.2714C15.2897 21.8955 14.5754 22.4145 14.0444 22.0288L12.4283 20.8546L10.8122 22.0288C10.2812 22.4145 9.56684 21.8955 9.76964 21.2714L10.3869 19.3715L8.77081 18.1973C8.23987 17.8115 8.51274 16.9717 9.16902 16.9717H11.1667L11.784 15.0719Z" fill="white"/>
</svg>
