<svg width="20" height="20" viewBox="0 0 20 20" fill="none" xmlns="http://www.w3.org/2000/svg">
<path d="M12.6833 5.45825H4.81666C4.58332 5.45825 4.36666 5.46659 4.16666 5.47492C2.19166 5.59159 1.66666 6.31658 1.66666 8.56658V9.04992C1.66666 9.50825 2.04166 9.88325 2.49999 9.88325H15C15.4583 9.88325 15.8333 9.50825 15.8333 9.04992V8.56658C15.8333 6.08325 15.2 5.45825 12.6833 5.45825ZM2.49999 11.1333C2.04166 11.1333 1.66666 11.5083 1.66666 11.9666V14.3916C1.66666 16.8749 2.29999 17.4999 4.81666 17.4999H12.6833C15.1583 17.4999 15.8083 16.8999 15.8333 14.5249V11.9666C15.8333 11.5083 15.4583 11.1333 15 11.1333H2.49999ZM5.79999 15.4666H4.37499C4.03332 15.4666 3.74999 15.1833 3.74999 14.8416C3.74999 14.4999 4.03332 14.2166 4.37499 14.2166H5.80832C6.14999 14.2166 6.43332 14.4999 6.43332 14.8416C6.43332 15.1833 6.14999 15.4666 5.79999 15.4666ZM10.4583 15.4666H7.59166C7.24999 15.4666 6.96666 15.1833 6.96666 14.8416C6.96666 14.4999 7.24999 14.2166 7.59166 14.2166H10.4583C10.6241 14.2166 10.7831 14.2824 10.9003 14.3996C11.0175 14.5169 11.0833 14.6758 11.0833 14.8416C11.0833 15.0073 11.0175 15.1663 10.9003 15.2835C10.7831 15.4007 10.6241 15.4666 10.4583 15.4666Z" fill="#A6D903"/>
<path d="M18.335 11.11V6.74338C18.335 4.13504 16.8433 3.00171 14.5933 3.00171H7.15166C6.51832 3.00171 5.95166 3.09338 5.45166 3.28504C5.05999 3.42671 4.70999 3.63504 4.42666 3.91004C4.27666 4.05171 4.39332 4.28504 4.60999 4.28504H13.6683C15.5433 4.28504 17.06 5.80171 17.06 7.67671V13.6517C17.06 13.86 17.285 13.9767 17.435 13.8267C18.01 13.2184 18.335 12.3267 18.335 11.11Z" fill="#A6D903"/>
</svg>
