<svg width="20" height="20" viewBox="0 0 20 20" fill="none" xmlns="http://www.w3.org/2000/svg">
<path d="M18.6335 6.8915L18.3919 4.58317C18.0419 2.0665 16.9002 1.0415 14.4585 1.0415H5.49186C3.04186 1.0415 1.90853 2.0665 1.5502 4.60817L1.3252 6.89984C1.24186 7.7915 1.48353 8.65817 2.00853 9.33317C2.64186 10.1582 3.61686 10.6248 4.7002 10.6248C5.7502 10.6248 6.75853 10.0998 7.39186 9.25817C7.68105 9.68257 8.07027 10.0292 8.52517 10.2676C8.98007 10.5059 9.48665 10.6286 10.0002 10.6248C11.0752 10.6248 12.0169 10.1248 12.5919 9.2915C13.2335 10.1165 14.2252 10.6248 15.2585 10.6248C16.3669 10.6248 17.3669 10.1332 17.9919 9.2665C18.4919 8.59984 18.7169 7.75817 18.6335 6.8915ZM9.45853 13.8832C8.94693 13.9378 8.47377 14.1802 8.13052 14.5635C7.78727 14.9467 7.59832 15.4437 7.6002 15.9582V18.2415C7.6002 18.4665 7.78353 18.6498 8.00853 18.6498H11.9835C12.2085 18.6498 12.3919 18.4665 12.3919 18.2415V16.2498C12.4002 14.5082 11.3752 13.6832 9.45853 13.8832Z" fill="#A6D903"/>
<path d="M17.8086 11.9981V14.4814C17.8086 16.7814 15.9419 18.6481 13.6419 18.6481C13.5336 18.6481 13.4297 18.6051 13.3532 18.5285C13.2766 18.4519 13.2336 18.3481 13.2336 18.2398V16.2481C13.2336 15.1814 12.9086 14.3481 12.2752 13.7814C11.7169 13.2731 10.9586 13.0231 10.0169 13.0231C9.80856 13.0231 9.60023 13.0314 9.37523 13.0564C8.65807 13.1299 7.99386 13.4674 7.51177 14.0034C7.02968 14.5394 6.76418 15.2355 6.76689 15.9564V18.2398C6.76689 18.4648 6.58356 18.6481 6.35856 18.6481C4.05856 18.6481 2.19189 16.7814 2.19189 14.4814V12.0148C2.19195 11.881 2.22422 11.7492 2.28597 11.6305C2.34772 11.5118 2.43713 11.4097 2.54666 11.3329C2.65618 11.2561 2.7826 11.2068 2.91521 11.1891C3.04783 11.1714 3.18275 11.186 3.30856 11.2314C3.53356 11.3064 3.75856 11.3648 3.99189 11.3981C4.09189 11.4148 4.20023 11.4314 4.30023 11.4314C4.43356 11.4481 4.56689 11.4564 4.70023 11.4564C5.66689 11.4564 6.61689 11.0981 7.36689 10.4814C8.08356 11.0981 9.01689 11.4564 10.0002 11.4564C10.9919 11.4564 11.9086 11.1148 12.6252 10.4981C13.3752 11.1064 14.3086 11.4564 15.2586 11.4564C15.4086 11.4564 15.5586 11.4481 15.7002 11.4314C16.0443 11.4029 16.3832 11.33 16.7086 11.2148C16.8334 11.172 16.9667 11.1596 17.0973 11.1786C17.2279 11.1976 17.3522 11.2475 17.4597 11.324C17.5672 11.4006 17.6549 11.5017 17.7156 11.6189C17.7763 11.7361 17.8081 11.8661 17.8086 11.9981Z" fill="#A6D903"/>
</svg>
