<svg width="24" height="24" viewBox="0 0 24 24" fill="none" xmlns="http://www.w3.org/2000/svg">
<g clip-path="url(#clip0_573_657)">
<path d="M20.3922 20.4899L12.1833 21.967C12.1623 21.972 12.1403 21.9723 12.1191 21.9679C12.0979 21.9635 12.0779 21.9546 12.0604 21.9418C12.043 21.9289 12.0286 21.9124 12.0181 21.8934C12.0077 21.8744 12.0015 21.8534 12 21.8318V9.40448L19.6078 8.03557C19.883 7.9711 20.169 7.96718 20.4459 8.02409C20.7228 8.08101 20.984 8.19738 21.2115 8.36517C21.439 8.53297 21.6273 8.74819 21.7635 8.99593C21.8996 9.24366 21.9803 9.51802 22 9.80002V18.7256C21.9818 19.1616 21.8107 19.5774 21.5168 19.8999C21.2228 20.2225 20.8247 20.4314 20.3922 20.4899Z" stroke="#7D7D7D" stroke-width="1.5" stroke-linecap="round" stroke-linejoin="round"/>
<path d="M12 9.40448L4.39223 8.03557C4.11699 7.9711 3.83104 7.96718 3.55415 8.02409C3.27725 8.08101 3.01602 8.19738 2.78852 8.36517C2.56102 8.53297 2.3727 8.74819 2.23655 8.99593C2.1004 9.24366 2.01969 9.51802 2 9.80002V18.7256C2.0182 19.1616 2.18927 19.5774 2.48322 19.9C2.77718 20.2226 3.17528 20.4314 3.60777 20.49L12 22V9.40448Z" stroke="#7D7D7D" stroke-width="1.5" stroke-linecap="round" stroke-linejoin="round"/>
<path d="M10 6.42628C10.2452 6.13037 10.554 5.89349 10.9033 5.73322C11.2526 5.57295 11.6335 5.49341 12.0177 5.5005C12.402 5.50758 12.7797 5.6011 13.1229 5.77413C13.466 5.94716 13.7658 6.19525 14 6.49999" stroke="#7D7D7D" stroke-width="1.5" stroke-linecap="round" stroke-linejoin="round"/>
<path d="M8 3.85257C8.49047 3.26076 9.10792 2.787 9.80653 2.46646C10.5051 2.14592 11.267 1.98683 12.0355 2.00099C12.804 2.01515 13.5594 2.20222 14.2458 2.54828C14.9321 2.89434 15.5317 3.39052 16 4" stroke="#7D7D7D" stroke-width="1.5" stroke-linecap="round" stroke-linejoin="round"/>
</g>
<defs>
<clipPath id="clip0_573_657">
<rect width="22" height="22" fill="white" transform="translate(1 1)"/>
</clipPath>
</defs>
</svg>
