<svg width="20" height="20" viewBox="0 0 20 20" fill="none" xmlns="http://www.w3.org/2000/svg">
<path d="M1.66669 18.3335H18.3334" stroke="#A6D903" stroke-width="1.5" stroke-linecap="round" stroke-linejoin="round"/>
<path d="M2.59167 18.3335V10.8335C2.59167 9.45016 3.83334 8.3335 5.36668 8.3335H14.625C16.1583 8.3335 17.4 9.45016 17.4 10.8335V18.3335" stroke="#A6D903" stroke-width="1.5" stroke-linecap="round" stroke-linejoin="round"/>
<path d="M4.63336 8.33317V5.97484C4.63336 4.97484 5.53336 4.1665 6.65003 4.1665H13.3584C14.4667 4.1665 15.3667 4.97484 15.3667 5.97484V8.33317" stroke="#A6D903" stroke-width="1.5" stroke-linecap="round" stroke-linejoin="round"/>
<path d="M2.94165 11.6499L3.24998 11.6582C3.86665 11.6666 4.35832 12.1666 4.35832 12.7832V13.0582C4.35832 13.6749 4.85832 14.1832 5.48332 14.1832C6.09998 14.1832 6.60832 13.6832 6.60832 13.0582V12.7999C6.60832 12.1832 7.10832 11.6749 7.73332 11.6749C8.34998 11.6749 8.85832 12.1749 8.85832 12.7999V13.0582C8.85832 13.6749 9.35832 14.1832 9.98332 14.1832C10.6 14.1832 11.1083 13.6832 11.1083 13.0582V12.7999C11.1083 12.1832 11.6083 11.6749 12.2333 11.6749C12.85 11.6749 13.3583 12.1749 13.3583 12.7999V13.0582C13.3583 13.6749 13.8583 14.1832 14.4833 14.1832C15.1 14.1832 15.6083 13.6832 15.6083 13.0582V12.7999C15.6083 12.1832 16.1083 11.6749 16.7333 11.6749H17.1083" stroke="#A6D903" stroke-width="1.5" stroke-linecap="round" stroke-linejoin="round"/>
<path d="M6.66669 4.16667V2.5" stroke="#A6D903" stroke-width="1.5" stroke-linecap="round" stroke-linejoin="round"/>
<path d="M13.3333 4.16667V2.5" stroke="#A6D903" stroke-width="1.5" stroke-linecap="round" stroke-linejoin="round"/>
<path d="M10 4.1665V1.6665" stroke="#A6D903" stroke-width="1.5" stroke-linecap="round" stroke-linejoin="round"/>
</svg>
