<svg width="20" height="20" viewBox="0 0 20 20" fill="none" xmlns="http://www.w3.org/2000/svg">
<path d="M10.0454 10.0454C12.2671 10.0454 14.0681 8.24438 14.0681 6.02271C14.0681 3.80103 12.2671 2 10.0454 2C7.82369 2 6.02267 3.80103 6.02267 6.02271C6.02267 8.24438 7.82369 10.0454 10.0454 10.0454Z" stroke="#A6D903" stroke-width="1.32749" stroke-linecap="round" stroke-linejoin="round"/>
<path d="M8.43633 10.0454H11.6545C13.3615 10.0454 14.9986 10.7235 16.2057 11.9306C17.4127 13.1376 18.0908 14.7747 18.0908 16.4817C18.0908 16.9085 17.9213 17.3178 17.6195 17.6195C17.3178 17.9213 16.9085 18.0908 16.4817 18.0908H3.60908C3.18233 18.0908 2.77305 17.9213 2.47129 17.6195C2.16953 17.3178 2 16.9085 2 16.4817C2 14.7747 2.67811 13.1376 3.88516 11.9306C5.0922 10.7235 6.72931 10.0454 8.43633 10.0454Z" stroke="#A6D903" stroke-width="1.32749" stroke-linecap="round" stroke-linejoin="round"/>
</svg>
