<svg width="20" height="20" viewBox="0 0 20 20" fill="none" xmlns="http://www.w3.org/2000/svg">
<path d="M16.6663 6.87484V14.9998C16.6663 17.4998 15.1747 18.3332 13.333 18.3332H6.66634C4.82467 18.3332 3.33301 17.4998 3.33301 14.9998V6.87484C3.33301 4.1665 4.82467 3.5415 6.66634 3.5415C6.66634 4.05817 6.87465 4.52483 7.21632 4.8665C7.55799 5.20817 8.02467 5.4165 8.54134 5.4165H11.458C12.4913 5.4165 13.333 4.57484 13.333 3.5415C15.1747 3.5415 16.6663 4.1665 16.6663 6.87484Z" stroke="#A6D903" stroke-width="1.5" stroke-linecap="round" stroke-linejoin="round"/>
<path d="M13.3337 3.5415C13.3337 4.57484 12.492 5.4165 11.4587 5.4165H8.54199C8.02533 5.4165 7.55864 5.20817 7.21697 4.8665C6.8753 4.52483 6.66699 4.05817 6.66699 3.5415C6.66699 2.50817 7.50866 1.6665 8.54199 1.6665H11.4587C11.9753 1.6665 12.442 1.87484 12.7837 2.21651C13.1253 2.55817 13.3337 3.02484 13.3337 3.5415Z" stroke="#A6D903" stroke-width="1.5" stroke-linecap="round" stroke-linejoin="round"/>
<path d="M6.66699 10.8335H10.0003" stroke="#A6D903" stroke-width="1.5" stroke-linecap="round" stroke-linejoin="round"/>
<path d="M6.66699 14.1665H13.3337" stroke="#A6D903" stroke-width="1.5" stroke-linecap="round" stroke-linejoin="round"/>
</svg>
