<svg width="18" height="18" viewBox="0 0 18 18" fill="none" xmlns="http://www.w3.org/2000/svg">
<g clip-path="url(#clip0_866_378)">
<path d="M10.8974 7.1025L7.10238 10.8975C6.59913 10.3942 6.31641 9.7117 6.31641 9C6.31641 8.6476 6.38582 8.29865 6.52067 7.97308C6.65553 7.6475 6.85319 7.35168 7.10238 7.1025C7.35156 6.85332 7.64738 6.65565 7.97296 6.5208C8.29853 6.38594 8.64748 6.31653 8.99988 6.31653C9.71158 6.31653 10.3941 6.59925 10.8974 7.1025Z" stroke="white" stroke-opacity="0.4" stroke-width="1.5" stroke-linecap="round" stroke-linejoin="round"/>
<path d="M13.3649 4.3275C12.0524 3.3375 10.5524 2.7975 8.99988 2.7975C6.35238 2.7975 3.88488 4.3575 2.16738 7.0575C1.49238 8.115 1.49238 9.8925 2.16738 10.95C2.75988 11.88 3.44988 12.6825 4.19988 13.3275M6.31488 14.6475C7.16988 15.0075 8.07738 15.2025 8.99988 15.2025C11.6474 15.2025 14.1149 13.6425 15.8324 10.9425C16.5074 9.885 16.5074 8.1075 15.8324 7.05C15.5849 6.66 15.3149 6.2925 15.0374 5.9475" stroke="white" stroke-opacity="0.4" stroke-width="1.5" stroke-linecap="round" stroke-linejoin="round"/>
<path d="M11.6325 9.525C11.5309 10.0482 11.2753 10.5291 10.8984 10.9059C10.5216 11.2828 10.0407 11.5384 9.5175 11.64M7.1025 10.8975L1.5 16.5M16.5 1.5L10.8975 7.1025" stroke="white" stroke-opacity="0.4" stroke-width="1.5" stroke-linecap="round" stroke-linejoin="round"/>
</g>
<defs>
<clipPath id="clip0_866_378">
<rect width="18" height="18" fill="white"/>
</clipPath>
</defs>
</svg>
